<svg fill="#1a1a1a" viewBox="0 0 512 512" style="shape-rendering:geometricPrecision; text-rendering:geometricPrecision; image-rendering:optimizeQuality; fillRule:evenodd; clipRule:evenodd" version="1.1" xml:space="preserve" xmlns="http://www.w3.org/2000/svg" xmlns:xlink="http://www.w3.org/1999/xlink" stroke="#1a1a1a" stroke-width="0.00512"><g id="SVGRepo_bgCarrier" stroke-width="0"></g><g id="SVGRepo_tracerCarrier" stroke-linecap="round" stroke-linejoin="round"></g><g id="SVGRepo_iconCarrier"> <defs> <style type="text/css">  .fil0 {fill:black;fillRule:nonzero}  </style> </defs> <g id="Layer_x0020_4"> <path className="fil0" d="M0 256c0,-71 29,-135 75,-181 46,-46 110,-75 181,-75 71,0 135,29 181,75 46,46 75,110 75,181 0,71 -29,135 -75,181 -46,46 -110,75 -181,75 -71,0 -135,-29 -181,-75 -46,-46 -75,-110 -75,-181zm83 -173c-44,44 -71,105 -71,173 0,68 27,129 71,173 44,44 105,71 173,71 68,0 129,-27 173,-71 44,-44 71,-105 71,-173 0,-68 -27,-129 -71,-173 -44,-44 -105,-71 -173,-71 -68,0 -129,27 -173,71z" id="Curve_x0020_12"></path> <path className="fil0" d="M360 309c2,-2 6,-2 8,0 2,2 2,6 0,8l-108 108c-2,3 -6,3 -8,0l-108 -108c-2,-2 -2,-6 0,-8 2,-2 6,-2 8,0l104 104 104 -104z" id="Curve_x0020_11"></path> <path className="fil0" d="M262 421c0,3 -3,6 -6,6 -3,0 -6,-3 -6,-6l0 -330c0,-3 3,-6 6,-6 3,0 6,3 6,6l0 330z" id="Curve_x0020_10"></path> </g> </g></svg>