<svg width="128" height="128" viewBox="0 0 128 128" fill="none" xmlns="http://www.w3.org/2000/svg">
<path fill-rule="evenodd" clip-rule="evenodd" d="M63.9755 14.25C57.345 14.25 51.9699 19.6251 51.9699 26.2556V40.8366H75.9811V26.2556C75.9811 19.6251 70.606 14.25 63.9755 14.25ZM63.9755 19.2769C60.4509 19.2769 57.5936 22.1341 57.5936 25.6588V33.1035H70.3574V25.6588C70.3574 22.1341 67.5001 19.2769 63.9755 19.2769Z" fill="black"/>
<path d="M24.8527 77.6619C25.1283 75.0206 27.3548 73.0143 30.0105 73.0143C32.8746 73.0143 35.1964 75.3361 35.1964 78.2001V90.793C35.1964 94.019 32.5812 96.6341 29.3553 96.6341C25.8895 96.6341 23.186 93.6339 23.5457 90.1868L24.8527 77.6619Z" fill="white"/>
<path fill-rule="evenodd" clip-rule="evenodd" d="M37.1964 78.2001V90.793C37.1964 95.1236 33.6858 98.6341 29.3553 98.6341C24.7029 98.6341 21.0737 94.6066 21.5565 89.9793L22.8635 77.4543C23.2454 73.7943 26.3306 71.0143 30.0105 71.0143C33.9792 71.0143 37.1964 74.2315 37.1964 78.2001ZM30.0105 73.0143C27.3548 73.0143 25.1283 75.0206 24.8527 77.6619L23.5457 90.1868C23.186 93.6339 25.8895 96.6341 29.3553 96.6341C32.5812 96.6341 35.1964 94.019 35.1964 90.793V78.2001C35.1964 75.3361 32.8746 73.0143 30.0105 73.0143Z" fill="black"/>
<path d="M103.147 77.6619C102.872 75.0206 100.645 73.0143 97.9894 73.0143C95.1254 73.0143 92.8036 75.3361 92.8036 78.2001V90.793C92.8036 94.019 95.4187 96.6341 98.6447 96.6341C102.11 96.6341 104.814 93.6339 104.454 90.1868L103.147 77.6619Z" fill="white"/>
<path fill-rule="evenodd" clip-rule="evenodd" d="M90.8036 78.2001V90.793C90.8036 95.1236 94.3142 98.6341 98.6447 98.6341C103.297 98.6341 106.926 94.6066 106.443 89.9793L105.136 77.4543C104.755 73.7943 101.669 71.0143 97.9894 71.0143C94.0208 71.0143 90.8036 74.2315 90.8036 78.2001ZM97.9894 73.0143C100.645 73.0143 102.872 75.0206 103.147 77.6619L104.454 90.1868C104.814 93.6339 102.11 96.6341 98.6447 96.6341C95.4187 96.6341 92.8036 94.019 92.8036 90.793V78.2001C92.8036 75.3361 95.1254 73.0143 97.9894 73.0143Z" fill="black"/>
<path d="M32.8133 52.4582C34.0315 37.9537 46.1596 26.8016 60.715 26.8016H67.4151C81.9706 26.8016 94.0986 37.9538 95.3168 52.4582L98.8264 94.2436C99.7081 104.742 91.4249 113.75 80.8895 113.75H47.2406C36.7052 113.75 28.422 104.742 29.3037 94.2435L32.8133 52.4582Z" fill="white"/>
<path fill-rule="evenodd" clip-rule="evenodd" d="M60.715 24.8016H67.4151C83.0103 24.8016 96.0046 36.7504 97.3098 52.2908L100.819 94.0762C101.799 105.741 92.5955 115.75 80.8895 115.75H47.2406C35.5346 115.75 26.331 105.741 27.3108 94.0761L30.8203 52.2908C32.1255 36.7503 45.1199 24.8016 60.715 24.8016ZM60.715 26.8016C46.1596 26.8016 34.0315 37.9537 32.8133 52.4582L29.3038 94.2435C28.422 104.742 36.7052 113.75 47.2406 113.75H80.8895C91.4249 113.75 99.7081 104.742 98.8264 94.2436L95.3168 52.4582C94.0986 37.9538 81.9706 26.8016 67.4151 26.8016H60.715Z" fill="black"/>
<path d="M50.7473 45.9286C50.7473 43.7195 52.5381 41.9286 54.7473 41.9286H73.3829C75.592 41.9286 77.3829 43.7194 77.3829 45.9286V49.9253C77.3829 52.1344 75.592 53.9253 73.3829 53.9253H54.7473C52.5381 53.9253 50.7473 52.1344 50.7473 49.9253V45.9286Z" fill="black"/>
<path d="M44.0401 103.129C45.8644 105.56 48.77 107.132 52.0427 107.132H83.162C88.6848 107.132 93.162 102.655 93.162 97.1319V85.1824C93.162 81.9096 91.5898 79.0041 89.1595 77.1798C89.3878 77.9232 89.5106 78.7128 89.5106 79.531V95.4806C89.5106 99.8988 85.9289 103.481 81.5106 103.481H46.3913C45.5731 103.481 44.7836 103.358 44.0401 103.129Z" fill="black"/>
<path fill-rule="evenodd" clip-rule="evenodd" d="M46.3913 69.531H81.5106C87.0334 69.531 91.5106 74.0082 91.5106 79.531V95.4805C91.5106 101.003 87.0334 105.481 81.5106 105.481H46.3913C40.8685 105.481 36.3913 101.003 36.3913 95.4805V79.531C36.3913 74.0082 40.8685 69.531 46.3913 69.531ZM46.3913 71.531C41.973 71.531 38.3913 75.1127 38.3913 79.531V95.4805C38.3913 99.8988 41.973 103.481 46.3913 103.481H81.5106C85.9289 103.481 89.5106 99.8988 89.5106 95.4805V79.531C89.5106 75.1127 85.9289 71.531 81.5106 71.531H46.3913Z" fill="black"/>
<path fill-rule="evenodd" clip-rule="evenodd" d="M37.2772 83.7402C37.2772 83.1879 37.7249 82.7402 38.2772 82.7402H89.8529C90.4052 82.7402 90.8529 83.1879 90.8529 83.7402C90.8529 84.2925 90.4052 84.7402 89.8529 84.7402H38.2772C37.7249 84.7402 37.2772 84.2925 37.2772 83.7402Z" fill="black"/>
<path d="M75.3224 81.8306C75.4355 81.076 76.171 80.5118 77.0413 80.5118H77.358C78.2284 80.5118 78.9638 81.076 79.077 81.8306L80.169 89.111C80.4042 90.679 79.0083 92.07 77.1997 92.07C75.391 92.07 73.9951 90.679 74.2303 89.111L75.3224 81.8306Z" fill="black"/>
</svg>
