<svg width="128" height="128" viewBox="0 0 128 128" fill="none" xmlns="http://www.w3.org/2000/svg">
<path d="M107.874 64.0001C107.874 88.0903 88.345 107.619 64.2549 107.619C40.1647 107.619 20.6357 88.0903 20.6357 64.0001C20.6357 39.9099 40.1647 20.381 64.2549 20.381C88.345 20.381 107.874 39.9099 107.874 64.0001Z" fill="white"/>
<path fill-rule="evenodd" clip-rule="evenodd" d="M109.874 64.0001C109.874 89.1948 89.4496 109.619 64.2549 109.619C39.0601 109.619 18.6357 89.1948 18.6357 64.0001C18.6357 38.8054 39.0601 18.381 64.2549 18.381C89.4496 18.381 109.874 38.8054 109.874 64.0001ZM64.2549 107.619C88.345 107.619 107.874 88.0903 107.874 64.0001C107.874 39.9099 88.345 20.381 64.2549 20.381C40.1647 20.381 20.6357 39.9099 20.6357 64.0001C20.6357 88.0903 40.1647 107.619 64.2549 107.619Z" fill="black"/>
<mask id="mask0" mask-type="alpha" maskUnits="userSpaceOnUse" x="20" y="20" width="88" height="88">
<path d="M107.874 64.0001C107.874 88.0903 88.345 107.619 64.2549 107.619C40.1647 107.619 20.6357 88.0903 20.6357 64.0001C20.6357 39.9099 40.1647 20.381 64.2549 20.381C88.345 20.381 107.874 39.9099 107.874 64.0001Z" fill="#C66868"/>
</mask>
<g mask="url(#mask0)">
<path fill-rule="evenodd" clip-rule="evenodd" d="M103.3 39.2648C104.128 39.3 104.77 39.9995 104.735 40.8272C103.722 64.621 93.6442 80.4572 81.4137 90.5629C69.232 100.628 54.9666 104.972 45.5101 105.955C44.6861 106.04 43.9488 105.442 43.8631 104.618C43.7775 103.794 44.3761 103.056 45.2001 102.971C54.1643 102.04 67.8459 97.882 79.5029 88.2502C91.111 78.6587 100.763 63.6021 101.738 40.6997C101.773 39.872 102.472 39.2296 103.3 39.2648Z" fill="black"/>
<path fill-rule="evenodd" clip-rule="evenodd" d="M29.7939 32.0863C30.1466 31.6613 30.777 31.6027 31.202 31.9555L100.462 89.4386C100.887 89.7913 100.945 90.4218 100.592 90.8468C100.24 91.2717 99.6093 91.3303 99.1843 90.9776L29.9247 33.4944C29.4997 33.1417 29.4411 32.5113 29.7939 32.0863Z" fill="black"/>
<path fill-rule="evenodd" clip-rule="evenodd" d="M17.6604 63.6552C18.4479 63.398 19.2947 63.828 19.5519 64.6155C21.1351 69.4641 29.4331 79.1152 54.6101 79.6193C80.5333 80.1384 89.0654 92.2609 89.7937 99.145C89.8808 99.9688 89.2836 100.707 88.4598 100.794C87.636 100.882 86.8975 100.284 86.8103 99.4606C86.3011 94.6475 79.6119 83.1205 54.5501 82.6187C28.7421 82.102 18.848 72.1247 16.7001 65.5467C16.4429 64.7592 16.8729 63.9123 17.6604 63.6552Z" fill="black"/>
<path fill-rule="evenodd" clip-rule="evenodd" d="M69.3546 17.339C69.9958 16.8145 70.9409 16.9091 71.4654 17.5503C74.2956 21.0104 78.4867 27.0989 82.1333 34.2165C85.7718 41.3185 88.9337 49.5711 89.5825 57.331C90.7615 71.4349 100.589 75.7599 105.122 76.221C105.946 76.3048 106.546 77.0409 106.463 77.8651C106.379 78.6893 105.643 79.2894 104.818 79.2056C99.1382 78.6278 87.915 73.3956 86.5929 57.5809C85.991 50.3816 83.0229 42.5325 79.4633 35.5844C75.9116 28.652 71.8364 22.7422 69.1433 19.4498C68.6187 18.8085 68.7134 17.8635 69.3546 17.339Z" fill="black"/>
</g>
<path fill-rule="evenodd" clip-rule="evenodd" d="M61.5523 104.014C85.6424 104.014 105.171 84.4852 105.171 60.3951C105.171 51.3984 102.448 43.038 97.7799 36.0933C104.082 43.6564 107.874 53.3855 107.874 64.0002C107.874 88.0903 88.345 107.619 64.2549 107.619C49.1613 107.619 35.8583 99.953 28.0272 88.302C36.0285 97.9035 48.0767 104.014 61.5523 104.014Z" fill="black"/>
</svg>
