<svg width="128" height="128" viewBox="0 0 128 128" fill="none" xmlns="http://www.w3.org/2000/svg">
<path d="M61.8085 51.336C61.8085 65.0381 63.4406 75.8834 64.4644 84.7955L76.1312 86.5936C77.3464 81.4945 83.7703 70.0133 86.2258 55.7671C88.6813 41.521 88.1465 34.4966 86.2258 30.4521C83.0317 23.7261 74.4617 23.6254 69.295 28.2328C64.1284 32.8402 61.8085 46.707 61.8085 51.336Z" fill="white"/>
<path fill-rule="evenodd" clip-rule="evenodd" d="M62.6516 86.5397L62.4775 85.0237C62.3168 83.6254 62.1403 82.1735 61.9569 80.6653C60.98 72.6301 59.8085 62.9949 59.8085 51.336C59.8085 48.8063 60.4232 44.0058 61.6811 39.2635C62.3139 36.878 63.1245 34.4483 64.1337 32.2888C65.1314 30.1537 66.3844 28.1487 67.9639 26.7401C70.9456 24.0812 74.9227 22.7587 78.6813 23.1006C82.4982 23.4479 86.1012 25.5273 88.0324 29.5941C90.2464 34.2563 90.6548 41.8459 88.1968 56.1069C86.9361 63.4211 84.6623 69.9956 82.5765 75.3379C81.8986 77.074 81.2285 78.7095 80.6239 80.1852C80.3053 80.9627 80.005 81.6958 79.7312 82.3759C78.9134 84.4076 78.3409 85.9488 78.0768 87.0572L77.6493 88.8512L62.6516 86.5397ZM63.94 80.4029C62.9637 72.3693 61.8085 62.8637 61.8085 51.336C61.8085 46.707 64.1284 32.8402 69.295 28.2328C74.4617 23.6254 83.0317 23.7261 86.2258 30.4521C88.1465 34.4966 88.6813 41.521 86.2259 55.7671C84.598 65.2114 81.2261 73.4405 78.7839 79.4006C77.5422 82.431 76.5408 84.8749 76.1313 86.5936L64.4644 84.7955C64.3019 83.3812 64.1242 81.9182 63.94 80.4029Z" fill="black"/>
<path fill-rule="evenodd" clip-rule="evenodd" d="M77.7286 38.8937C77.963 38.3936 78.5585 38.1782 79.0585 38.4127L82.1445 39.8592C82.6446 40.0936 82.8599 40.689 82.6255 41.1891C82.3911 41.6892 81.7957 41.9045 81.2956 41.6701L78.2097 40.2236C77.7096 39.9892 77.4942 39.3938 77.7286 38.8937Z" fill="black"/>
<path fill-rule="evenodd" clip-rule="evenodd" d="M81.2025 38.2375C81.6662 38.5375 81.7988 39.1566 81.4988 39.6203L79.9076 42.0794C79.6076 42.5431 78.9885 42.6757 78.5248 42.3757C78.0611 42.0757 77.9285 41.4566 78.2285 40.9929L79.8197 38.5338C80.1197 38.0701 80.7388 37.9374 81.2025 38.2375Z" fill="black"/>
<path fill-rule="evenodd" clip-rule="evenodd" d="M76.5309 33.4195C76.1284 33.0413 76.1086 32.4085 76.4867 32.0059L78.82 29.5218C79.1982 29.1192 79.831 29.0994 80.2336 29.4775C80.6361 29.8557 80.6559 30.4885 80.2778 30.8911L77.9444 33.3752C77.5663 33.7778 76.9335 33.7976 76.5309 33.4195Z" fill="black"/>
<path fill-rule="evenodd" clip-rule="evenodd" d="M76.9859 29.9136C77.4151 29.566 78.0448 29.6321 78.3924 30.0613L80.2358 32.3375C80.5834 32.7667 80.5172 33.3964 80.088 33.744C79.6588 34.0916 79.0291 34.0254 78.6816 33.5963L76.8382 31.32C76.4906 30.8909 76.5567 30.2612 76.9859 29.9136Z" fill="black"/>
<path fill-rule="evenodd" clip-rule="evenodd" d="M67.3272 38.6481C67.2433 38.1022 67.6179 37.5917 68.1638 37.5079L71.5325 36.9906C72.0784 36.9068 72.5889 37.2814 72.6727 37.8273C72.7565 38.3732 72.3819 38.8836 71.836 38.9675L68.4673 39.4847C67.9214 39.5685 67.411 39.1939 67.3272 38.6481Z" fill="black"/>
<path fill-rule="evenodd" clip-rule="evenodd" d="M69.8469 36.1683C70.3991 36.1593 70.8541 36.5996 70.8632 37.1518L70.9112 40.0805C70.9202 40.6327 70.4799 41.0877 69.9277 41.0967C69.3755 41.1058 68.9205 40.6654 68.9114 40.1132L68.8634 37.1846C68.8544 36.6324 69.2947 36.1774 69.8469 36.1683Z" fill="black"/>
<path fill-rule="evenodd" clip-rule="evenodd" d="M71.1176 47.6267C71.0337 47.0808 71.4083 46.5703 71.9542 46.4865L75.3229 45.9693C75.8688 45.8854 76.3793 46.26 76.4631 46.8059C76.5469 47.3518 76.1723 47.8623 75.6264 47.9461L72.2577 48.4633C71.7119 48.5472 71.2014 48.1726 71.1176 47.6267Z" fill="black"/>
<path fill-rule="evenodd" clip-rule="evenodd" d="M73.6373 45.147C74.1895 45.1379 74.6445 45.5783 74.6536 46.1305L74.7016 49.0591C74.7106 49.6113 74.2703 50.0663 73.7181 50.0754C73.1659 50.0844 72.7109 49.6441 72.7018 49.0919L72.6538 46.1632C72.6448 45.611 73.0851 45.156 73.6373 45.147Z" fill="black"/>
<path fill-rule="evenodd" clip-rule="evenodd" d="M78.243 55.3017C77.9172 54.8558 78.0145 54.2301 78.4605 53.9043L81.2123 51.8936C81.6582 51.5677 82.2839 51.6651 82.6097 52.111C82.9355 52.557 82.8382 53.1826 82.3922 53.5084L79.6404 55.5191C79.1945 55.845 78.5688 55.7476 78.243 55.3017Z" fill="black"/>
<path fill-rule="evenodd" clip-rule="evenodd" d="M79.3374 51.94C79.8234 51.6776 80.43 51.8589 80.6924 52.3448L82.0839 54.9222C82.3463 55.4082 82.1651 56.0149 81.6791 56.2772C81.1931 56.5396 80.5864 56.3583 80.3241 55.8724L78.9325 53.295C78.6702 52.809 78.8514 52.2024 79.3374 51.94Z" fill="black"/>
<path fill-rule="evenodd" clip-rule="evenodd" d="M68.4547 60.4127C68.1289 59.9667 68.2263 59.3411 68.6722 59.0153L71.424 57.0045C71.8699 56.6787 72.4956 56.7761 72.8214 57.222C73.1472 57.6679 73.0499 58.2936 72.604 58.6194L69.8521 60.6301C69.4062 60.9559 68.7806 60.8586 68.4547 60.4127Z" fill="black"/>
<path fill-rule="evenodd" clip-rule="evenodd" d="M69.5491 57.0509C70.0351 56.7886 70.6418 56.9698 70.9041 57.4558L72.2957 60.0332C72.558 60.5191 72.3768 61.1258 71.8908 61.3882C71.4048 61.6506 70.7982 61.4693 70.5358 60.9833L69.1443 58.406C68.8819 57.92 69.0631 57.3133 69.5491 57.0509Z" fill="black"/>
<path fill-rule="evenodd" clip-rule="evenodd" d="M74.4482 65.9853C74.5018 65.4356 74.9909 65.0336 75.5406 65.0872L78.9326 65.4184C79.4823 65.4721 79.8844 65.9612 79.8307 66.5108C79.7771 67.0605 79.288 67.4626 78.7383 67.4089L75.3463 67.0778C74.7966 67.0241 74.3945 66.535 74.4482 65.9853Z" fill="black"/>
<path fill-rule="evenodd" clip-rule="evenodd" d="M77.5025 64.2051C78.0399 64.3327 78.3719 64.8718 78.2443 65.4091L77.5671 68.2588C77.4394 68.7961 76.9003 69.1282 76.363 69.0005C75.8257 68.8729 75.4936 68.3338 75.6213 67.7965L76.2984 64.9468C76.4261 64.4095 76.9652 64.0774 77.5025 64.2051Z" fill="black"/>
<path fill-rule="evenodd" clip-rule="evenodd" d="M70.5019 77.9052C69.9541 77.9751 69.4533 77.5876 69.3835 77.0398L68.9523 73.659C68.8824 73.1111 69.2699 72.6104 69.8177 72.5405C70.3655 72.4706 70.8663 72.8581 70.9362 73.4059L71.3674 76.7867C71.4373 77.3346 71.0498 77.8353 70.5019 77.9052Z" fill="black"/>
<path fill-rule="evenodd" clip-rule="evenodd" d="M68.0872 75.3231C68.0923 74.7708 68.544 74.3272 69.0963 74.3322L72.0252 74.3589C72.5775 74.3639 73.0211 74.8157 73.0161 75.368C73.011 75.9202 72.5592 76.3638 72.007 76.3588L69.0781 76.3321C68.5258 76.3271 68.0822 75.8753 68.0872 75.3231Z" fill="black"/>
<path d="M68.3965 47.4444C70.0861 60.1792 67.3926 76.0848 66.5259 86.4986L56.4533 88.9101C54.8523 83.0175 46.9535 69.8844 43.5744 53.3872C40.1952 36.89 40.9617 29.7649 43.0506 24.9857C45.687 18.9536 53.9439 14.8236 59.7785 20.9808C65.3252 26.8342 67.6872 42.099 68.3965 47.4444Z" fill="white"/>
<path fill-rule="evenodd" clip-rule="evenodd" d="M68.399 88.1066L68.5191 86.6644C68.718 84.2733 69.015 81.584 69.3367 78.6716C69.3608 78.4533 69.385 78.2338 69.4094 78.0131C69.7573 74.8589 70.1252 71.4722 70.413 68.0074C70.9869 61.0955 71.2526 53.7647 70.3791 47.1813C70.0203 44.4774 69.2396 39.2293 67.8357 33.8941C66.4605 28.6679 64.3858 22.9351 61.2303 19.6051C57.7436 15.9257 53.3986 15.2724 49.5961 16.5105C45.908 17.7113 42.7556 20.6667 41.218 24.1847C38.871 29.5543 38.2167 37.1973 41.6151 53.7885C43.3436 62.2272 46.2214 69.7756 48.8413 75.9108C49.6931 77.9053 50.5305 79.7796 51.2876 81.474C51.6873 82.3684 52.0646 83.2128 52.4097 83.9982C53.435 86.3313 54.1678 88.1263 54.5232 89.4345L55.0319 91.3069L68.399 88.1066ZM67.3478 78.4604C68.4075 68.8659 69.6936 57.2208 68.3965 47.4444C67.6872 42.099 65.3252 26.8342 59.7785 20.9808C53.9439 14.8236 45.6871 18.9536 43.0506 24.9857C40.9617 29.7648 40.1952 36.89 43.5744 53.3872C45.8145 64.3237 50.041 73.7818 53.1021 80.6321C54.6585 84.115 55.9136 86.9239 56.4533 88.9101L66.5259 86.4985C66.7273 84.0793 67.0272 81.3637 67.3478 78.4604Z" fill="black"/>
<path fill-rule="evenodd" clip-rule="evenodd" d="M47.5301 18.5418C48.0814 18.5748 48.5016 19.0484 48.4687 19.5997C48.3469 21.6405 48.2413 25.0251 48.3223 28.5195C48.4037 32.0345 48.6728 35.5773 49.2729 37.9777C50.8538 44.3012 51.8759 49.8775 52.6171 54.1398C53.3551 58.3833 58.3408 81.7326 59.433 85.3732C59.5917 85.9022 59.2915 86.4597 58.7625 86.6184C58.2335 86.7771 57.676 86.4769 57.5173 85.9479C56.3901 82.1904 51.3883 58.7468 50.6467 54.4825C49.9084 50.2369 48.896 44.7161 47.3327 38.4628C46.6751 35.8326 46.4047 32.1005 46.3228 28.5658C46.2404 25.0104 46.3475 21.5703 46.4723 19.4805C46.5052 18.9292 46.9788 18.5089 47.5301 18.5418Z" fill="black"/>
<path fill-rule="evenodd" clip-rule="evenodd" d="M43.72 22.2397C44.2718 22.262 44.7011 22.7274 44.6788 23.2793C44.618 24.7848 44.5767 27.2721 44.6514 29.8193C44.7268 32.3866 44.9184 34.9372 45.3017 36.6095C45.9447 39.4155 46.7448 44.078 47.4288 48.0634C47.8276 50.3871 48.1868 52.4806 48.4525 53.842C48.814 55.6946 50.4917 62.3877 52.3068 68.9083C53.2126 72.1623 54.1474 75.3544 54.9631 77.8603C55.3714 79.1145 55.7459 80.1846 56.0688 80.9999C56.2304 81.4079 56.3748 81.7409 56.4997 81.9959C56.6323 82.2664 56.7173 82.3948 56.7497 82.4341C57.1015 82.8599 57.0415 83.4902 56.6157 83.842C56.1899 84.1937 55.5596 84.1337 55.2078 83.7079C55.0207 83.4814 54.8527 83.1799 54.7039 82.8762C54.5474 82.557 54.3817 82.1715 54.2094 81.7364C53.8644 80.8655 53.4752 79.7508 53.0613 78.4793C52.2327 75.9337 51.2891 72.7102 50.38 69.4446C48.5655 62.9261 46.8678 56.1639 46.4895 54.225C46.2051 52.7676 45.8358 50.6128 45.4317 48.2547C44.758 44.3242 43.9876 39.8287 43.3522 37.0563C42.9217 35.1775 42.728 32.457 42.6523 29.878C42.576 27.2789 42.6179 24.7448 42.6804 23.1985C42.7027 22.6467 43.1681 22.2174 43.72 22.2397Z" fill="black"/>
<path fill-rule="evenodd" clip-rule="evenodd" d="M49.7474 17.4548C50.2861 17.3332 50.8215 17.6713 50.9431 18.21C51.5866 21.0596 52.9097 27.7333 52.9097 31.192C52.9097 33.178 53.586 38.0076 54.3203 42.8799C54.487 43.9859 54.6565 45.0927 54.8203 46.1625C55.3658 49.7259 55.8486 52.8794 55.9581 54.2302C56.1776 56.9376 58.1395 72.5682 59.0976 80.0778C59.1674 80.6257 58.78 81.1265 58.2321 81.1964C57.6843 81.2662 57.1835 80.8788 57.1136 80.3309C56.1605 72.8594 54.189 57.1591 53.9647 54.3919C53.8615 53.1188 53.3974 50.0866 52.8563 46.5514C52.6896 45.4624 52.5157 44.3257 52.3427 43.178C51.6205 38.3865 50.9097 33.3674 50.9097 31.192C50.9097 27.9924 49.6435 21.5345 48.9922 18.6505C48.8706 18.1118 49.2087 17.5765 49.7474 17.4548Z" fill="black"/>
<path fill-rule="evenodd" clip-rule="evenodd" d="M55.1124 17.2379C55.6176 17.0147 56.208 17.2433 56.4312 17.7484C57.6031 20.4006 60.2052 26.7813 61.1165 30.8823C62.2427 35.9501 63.4499 46.1849 63.729 53.4401C63.8398 56.3228 63.7031 60.5835 63.5615 64.9964C63.5238 66.1728 63.4857 67.3599 63.4518 68.5347C63.2888 74.194 63.2278 79.5066 63.7143 82.2489C63.8108 82.7927 63.4482 83.3117 62.9044 83.4082C62.3606 83.5047 61.8415 83.1421 61.7451 82.5983C61.2144 79.607 61.292 74.0537 61.4527 68.4771C61.4873 67.275 61.526 66.0689 61.564 64.8805C61.7051 60.4792 61.8383 56.3216 61.7304 53.5169C61.4546 46.3458 60.2574 36.2359 59.1642 31.3162C58.3 27.4273 55.7727 21.2065 54.6019 18.5568C54.3786 18.0516 54.6072 17.4611 55.1124 17.2379Z" fill="black"/>
<path fill-rule="evenodd" clip-rule="evenodd" d="M52.8568 16.9377C53.3746 16.7458 53.95 17.01 54.142 17.5278C55.4687 21.1069 58.3567 29.7122 59.1872 35.2988C60.2079 42.1652 60.9611 52.1494 60.582 56.8876C60.4407 58.6535 60.6344 63.8256 60.9467 69.6781C61.2569 75.4888 61.6773 81.8635 61.9698 85.9591C62.0092 86.51 61.5945 86.9885 61.0436 87.0278C60.4927 87.0672 60.0142 86.6525 59.9749 86.1016C59.6818 81.9977 59.2606 75.6106 58.9496 69.7847C58.6409 64.0007 58.4337 58.6613 58.5884 56.7281C58.9491 52.2187 58.2227 42.4131 57.2089 35.5929C56.4118 30.2303 53.5909 21.7954 52.2667 18.223C52.0747 17.7051 52.3389 17.1297 52.8568 16.9377Z" fill="black"/>
<path fill-rule="evenodd" clip-rule="evenodd" d="M57.5517 18.1904C58.0417 17.9355 58.6455 18.126 58.9004 18.6159C60.8904 22.4404 65.1589 32.0886 66.2177 40.0299C67.5236 49.8239 67.3379 57.0208 66.777 63.0045C66.3336 67.7333 65.4833 77.7894 65.1133 82.2293C65.0674 82.7797 64.5841 83.1887 64.0337 83.1428C63.4833 83.0969 63.0743 82.6136 63.1202 82.0632C63.49 77.6254 64.3412 67.5587 64.7857 62.8179C65.3344 56.9646 65.5187 49.9202 64.2352 40.2942C63.2226 32.6996 59.0819 23.2976 57.1262 19.5391C56.8713 19.0491 57.0618 18.4453 57.5517 18.1904Z" fill="black"/>
<path d="M48.1354 90.6573C47.5312 87.0025 50.3506 83.6787 54.0551 83.6787H73.4731C77.1775 83.6787 79.9969 87.0025 79.3927 90.6573L76.6435 107.287C76.1647 110.184 73.6599 112.309 70.7239 112.309H56.8042C53.8682 112.309 51.3635 110.184 50.8846 107.287L48.1354 90.6573Z" fill="white"/>
<path fill-rule="evenodd" clip-rule="evenodd" d="M54.0551 81.6787H73.4731C78.4123 81.6787 82.1716 86.1104 81.366 90.9835L78.6168 107.614C77.9783 111.476 74.6386 114.309 70.7239 114.309H56.8042C52.8895 114.309 49.5499 111.476 48.9114 107.614L46.1622 90.9835C45.3566 86.1104 49.1158 81.6787 54.0551 81.6787ZM54.0551 83.6787C50.3506 83.6787 47.5312 87.0025 48.1354 90.6573L50.8846 107.287C51.3635 110.184 53.8682 112.309 56.8042 112.309H70.7239C73.6599 112.309 76.1647 110.184 76.6435 107.287L79.3927 90.6573C79.9969 87.0025 77.1775 83.6787 73.4731 83.6787H54.0551Z" fill="black"/>
<path d="M80.5466 83.6787H46.9819L48.3439 91.9176H79.1846L80.5466 83.6787Z" fill="black"/>
<path fill-rule="evenodd" clip-rule="evenodd" d="M47.8351 95.7333C47.8351 95.181 48.2828 94.7333 48.8351 94.7333H62.0469C62.5992 94.7333 63.0469 95.181 63.0469 95.7333C63.0469 96.2856 62.5992 96.7333 62.0469 96.7333H48.8351C48.2828 96.7333 47.8351 96.2856 47.8351 95.7333Z" fill="black"/>
<path fill-rule="evenodd" clip-rule="evenodd" d="M53.3322 108.656C53.3322 108.103 53.7799 107.656 54.3322 107.656H76.9947C77.547 107.656 77.9947 108.103 77.9947 108.656C77.9947 109.208 77.547 109.656 76.9947 109.656H54.3322C53.7799 109.656 53.3322 109.208 53.3322 108.656Z" fill="black"/>
<path d="M40.9871 82.9015C40.9871 80.7742 42.7115 79.0498 44.8387 79.0498H82.6902C84.8174 79.0498 86.5419 80.7742 86.5419 82.9015C86.5419 85.0287 84.8174 86.7531 82.6902 86.7531H44.8387C42.7115 86.7531 40.9871 85.0287 40.9871 82.9015Z" fill="white"/>
<path fill-rule="evenodd" clip-rule="evenodd" d="M44.8387 77.0498H82.6902C85.922 77.0498 88.5419 79.6697 88.5419 82.9015C88.5419 86.1332 85.922 88.7531 82.6902 88.7531H44.8387C41.6069 88.7531 38.9871 86.1332 38.9871 82.9015C38.9871 79.6697 41.6069 77.0498 44.8387 77.0498ZM44.8387 79.0498C42.7115 79.0498 40.9871 80.7742 40.9871 82.9015C40.9871 85.0287 42.7115 86.7531 44.8387 86.7531H82.6902C84.8174 86.7531 86.5419 85.0287 86.5419 82.9015C86.5419 80.7742 84.8174 79.0498 82.6902 79.0498H44.8387Z" fill="black"/>
</svg>
