<svg width="128" height="128" viewBox="0 0 128 128" fill="none" xmlns="http://www.w3.org/2000/svg">
<path d="M32.2543 29.7945C32.2543 25.7211 35.5564 22.4189 39.6299 22.4189H95.1316C99.205 22.4189 102.507 25.7211 102.507 29.7945V104.967C102.507 109.04 99.205 112.343 95.1316 112.343H39.6299C35.5564 112.343 32.2543 109.04 32.2543 104.967V29.7945Z" fill="black"/>
<path d="M27.3367 24.8768C27.3367 20.8034 30.6389 17.5012 34.7123 17.5012H90.214C94.2875 17.5012 97.5896 20.8034 97.5896 24.8768V100.049C97.5896 104.123 94.2875 107.425 90.214 107.425H34.7123C30.6389 107.425 27.3367 104.123 27.3367 100.049V24.8768Z" fill="white"/>
<path fill-rule="evenodd" clip-rule="evenodd" d="M34.7123 15.6573H90.2141C95.3058 15.6573 99.4335 19.7851 99.4335 24.8768V100.049C99.4335 105.141 95.3058 109.269 90.2141 109.269H34.7123C29.6205 109.269 25.4928 105.141 25.4928 100.049V24.8768C25.4928 19.785 29.6206 15.6573 34.7123 15.6573ZM34.7123 17.5012C30.6389 17.5012 27.3367 20.8034 27.3367 24.8768V100.049C27.3367 104.123 30.6389 107.425 34.7123 107.425H90.2141C94.2875 107.425 97.5896 104.123 97.5896 100.049V24.8768C97.5896 20.8034 94.2875 17.5012 90.2141 17.5012H34.7123Z" fill="black"/>
<path d="M35.8553 29.4454C35.8553 27.4087 37.5064 25.7576 39.5431 25.7576H86.3501C88.3868 25.7576 90.0379 27.4087 90.0379 29.4454V38.0867C90.0379 40.1234 88.3868 41.7745 86.3501 41.7745H39.5431C37.5064 41.7745 35.8553 40.1234 35.8553 38.0867V29.4454Z" fill="black"/>
<path fill-rule="evenodd" clip-rule="evenodd" d="M39.104 48.2891H47.0079C49.0446 48.2891 50.6957 49.9401 50.6957 51.9769V53.6301C50.6957 55.6668 49.0446 57.3179 47.0079 57.3179H39.104C37.0673 57.3179 35.4162 55.6668 35.4162 53.6301V51.9769C35.4162 49.9401 37.0673 48.2891 39.104 48.2891ZM39.104 50.133C38.0856 50.133 37.2601 50.9585 37.2601 51.9769V53.6301C37.2601 54.6484 38.0856 55.474 39.104 55.474H47.0079C48.0263 55.474 48.8518 54.6484 48.8518 53.6301V51.9769C48.8518 50.9585 48.0263 50.133 47.0079 50.133H39.104Z" fill="black"/>
<path fill-rule="evenodd" clip-rule="evenodd" d="M39.104 61.2852H47.0079C49.0446 61.2852 50.6957 62.9362 50.6957 64.973V66.6262C50.6957 68.6629 49.0446 70.314 47.0079 70.314H39.104C37.0673 70.314 35.4162 68.6629 35.4162 66.6262V64.973C35.4162 62.9362 37.0673 61.2852 39.104 61.2852ZM39.104 63.1291C38.0856 63.1291 37.2601 63.9546 37.2601 64.973V66.6262C37.2601 67.6445 38.0856 68.4701 39.104 68.4701H47.0079C48.0263 68.4701 48.8518 67.6445 48.8518 66.6262V64.973C48.8518 63.9546 48.0263 63.1291 47.0079 63.1291H39.104Z" fill="black"/>
<path fill-rule="evenodd" clip-rule="evenodd" d="M39.104 74.9843H47.0079C49.0446 74.9843 50.6957 76.6353 50.6957 78.672V80.3253C50.6957 82.362 49.0446 84.0131 47.0079 84.0131H39.104C37.0673 84.0131 35.4162 82.362 35.4162 80.3253V78.672C35.4162 76.6353 37.0673 74.9843 39.104 74.9843ZM39.104 76.8282C38.0856 76.8282 37.2601 77.6537 37.2601 78.672V80.3253C37.2601 81.3436 38.0856 82.1692 39.104 82.1692H47.0079C48.0263 82.1692 48.8518 81.3436 48.8518 80.3253V78.672C48.8518 77.6537 48.0263 76.8282 47.0079 76.8282H39.104Z" fill="black"/>
<path fill-rule="evenodd" clip-rule="evenodd" d="M39.104 88.6838H47.0079C49.0446 88.6838 50.6957 90.3349 50.6957 92.3716V94.0248C50.6957 96.0616 49.0446 97.7126 47.0079 97.7126H39.104C37.0673 97.7126 35.4162 96.0616 35.4162 94.0248V92.3716C35.4162 90.3349 37.0673 88.6838 39.104 88.6838ZM39.104 90.5277C38.0856 90.5277 37.2601 91.3533 37.2601 92.3716V94.0248C37.2601 95.0432 38.0856 95.8687 39.104 95.8687H47.0079C48.0263 95.8687 48.8518 95.0432 48.8518 94.0248V92.3716C48.8518 91.3533 48.0263 90.5277 47.0079 90.5277H39.104Z" fill="black"/>
<path fill-rule="evenodd" clip-rule="evenodd" d="M59.4774 48.2891H67.3813C69.4181 48.2891 71.0691 49.9401 71.0691 51.9769V53.6301C71.0691 55.6668 69.4181 57.3179 67.3813 57.3179H59.4774C57.4407 57.3179 55.7896 55.6668 55.7896 53.6301V51.9769C55.7896 49.9401 57.4407 48.2891 59.4774 48.2891ZM59.4774 50.133C58.4591 50.133 57.6335 50.9585 57.6335 51.9769V53.6301C57.6335 54.6484 58.4591 55.474 59.4774 55.474H67.3813C68.3997 55.474 69.2252 54.6484 69.2252 53.6301V51.9769C69.2252 50.9585 68.3997 50.133 67.3813 50.133H59.4774Z" fill="black"/>
<path fill-rule="evenodd" clip-rule="evenodd" d="M59.4774 61.2852H67.3813C69.4181 61.2852 71.0691 62.9362 71.0691 64.973V66.6262C71.0691 68.6629 69.4181 70.314 67.3813 70.314H59.4774C57.4407 70.314 55.7896 68.6629 55.7896 66.6262V64.973C55.7896 62.9362 57.4407 61.2852 59.4774 61.2852ZM59.4774 63.1291C58.4591 63.1291 57.6335 63.9546 57.6335 64.973V66.6262C57.6335 67.6445 58.4591 68.4701 59.4774 68.4701H67.3813C68.3997 68.4701 69.2252 67.6445 69.2252 66.6262V64.973C69.2252 63.9546 68.3997 63.1291 67.3813 63.1291H59.4774Z" fill="black"/>
<path fill-rule="evenodd" clip-rule="evenodd" d="M59.4774 74.9843H67.3813C69.4181 74.9843 71.0691 76.6353 71.0691 78.672V80.3253C71.0691 82.362 69.4181 84.0131 67.3813 84.0131H59.4774C57.4407 84.0131 55.7896 82.362 55.7896 80.3253V78.672C55.7896 76.6353 57.4407 74.9843 59.4774 74.9843ZM59.4774 76.8282C58.4591 76.8282 57.6335 77.6537 57.6335 78.672V80.3253C57.6335 81.3436 58.4591 82.1692 59.4774 82.1692H67.3813C68.3997 82.1692 69.2252 81.3436 69.2252 80.3253V78.672C69.2252 77.6537 68.3997 76.8282 67.3813 76.8282H59.4774Z" fill="black"/>
<path fill-rule="evenodd" clip-rule="evenodd" d="M59.4774 88.6838H67.3813C69.4181 88.6838 71.0691 90.3349 71.0691 92.3716V94.0248C71.0691 96.0616 69.4181 97.7126 67.3813 97.7126H59.4774C57.4407 97.7126 55.7896 96.0616 55.7896 94.0248V92.3716C55.7896 90.3349 57.4407 88.6838 59.4774 88.6838ZM59.4774 90.5277C58.4591 90.5277 57.6335 91.3533 57.6335 92.3716V94.0248C57.6335 95.0432 58.4591 95.8687 59.4774 95.8687H67.3813C68.3997 95.8687 69.2252 95.0432 69.2252 94.0248V92.3716C69.2252 91.3533 68.3997 90.5277 67.3813 90.5277H59.4774Z" fill="black"/>
<path fill-rule="evenodd" clip-rule="evenodd" d="M79.3241 48.2891H87.228C89.2647 48.2891 90.9158 49.9401 90.9158 51.9769V53.6301C90.9158 55.6668 89.2647 57.3179 87.228 57.3179H79.3241C77.2874 57.3179 75.6363 55.6668 75.6363 53.6301V51.9769C75.6363 49.9401 77.2874 48.2891 79.3241 48.2891ZM79.3241 50.133C78.3057 50.133 77.4802 50.9585 77.4802 51.9769V53.6301C77.4802 54.6484 78.3057 55.474 79.3241 55.474H87.228C88.2464 55.474 89.0719 54.6484 89.0719 53.6301V51.9769C89.0719 50.9585 88.2464 50.133 87.228 50.133H79.3241Z" fill="black"/>
<path fill-rule="evenodd" clip-rule="evenodd" d="M78.2696 61.2852H86.1735C88.2103 61.2852 89.8613 62.9362 89.8613 64.973V94.0244C89.8613 96.0612 88.2103 97.7122 86.1735 97.7122H78.2696C76.2329 97.7122 74.5818 96.0612 74.5818 94.0244V64.9729C74.5818 62.9362 76.2329 61.2852 78.2696 61.2852ZM78.2696 63.1291C77.2513 63.1291 76.4257 63.9546 76.4257 64.9729V94.0244C76.4257 95.0428 77.2513 95.8683 78.2696 95.8683H86.1735C87.1919 95.8683 88.0174 95.0428 88.0174 94.0244V64.973C88.0174 63.9546 87.1919 63.1291 86.1735 63.1291H78.2696Z" fill="black"/>
<path fill-rule="evenodd" clip-rule="evenodd" d="M79.3677 77.6035C79.3677 77.0943 79.7805 76.6815 80.2897 76.6815H84.1536C84.6628 76.6815 85.0755 77.0943 85.0755 77.6035C85.0755 78.1126 84.6628 78.5254 84.1536 78.5254H80.2897C79.7805 78.5254 79.3677 78.1126 79.3677 77.6035Z" fill="black"/>
<path fill-rule="evenodd" clip-rule="evenodd" d="M79.3677 81.0285C79.3677 80.5193 79.7805 80.1066 80.2897 80.1066H84.1536C84.6628 80.1066 85.0755 80.5193 85.0755 81.0285C85.0755 81.5377 84.6628 81.9505 84.1536 81.9505H80.2897C79.7805 81.9505 79.3677 81.5377 79.3677 81.0285Z" fill="black"/>
<path fill-rule="evenodd" clip-rule="evenodd" d="M79.3677 31.2713C79.3677 29.8456 80.5235 28.6898 81.9492 28.6898H82.7575C84.1832 28.6898 85.339 29.8456 85.339 31.2713V35.8118C85.339 37.2375 84.1832 38.3933 82.7575 38.3933H81.9492C80.5235 38.3933 79.3677 37.2375 79.3677 35.8118V31.2713ZM81.9492 30.5337C81.5418 30.5337 81.2116 30.8639 81.2116 31.2713V35.8118C81.2116 36.2191 81.5419 36.5494 81.9492 36.5494H82.7575C83.1649 36.5494 83.4951 36.2191 83.4951 35.8118V31.2713C83.4951 30.8639 83.1649 30.5337 82.7575 30.5337H81.9492Z" fill="white"/>
</svg>
