<svg width="128" height="128" viewBox="0 0 128 128" fill="none" xmlns="http://www.w3.org/2000/svg">
<path d="M36.9867 23.2294L26.1176 35.3256C24.9477 36.6275 25.8964 38.6979 27.6463 38.6619L100.6 37.164C102.351 37.1281 103.213 35.0173 101.988 33.7654L90.2672 21.7925C90.0739 21.5951 89.8077 21.4865 89.5316 21.4923L38.4323 22.5665C37.8795 22.5782 37.3562 22.8181 36.9867 23.2294Z" fill="black"/>
<path d="M55.4875 95.683L24.3101 38.8895L38.1963 24.5745L69.5333 82.6127L55.4875 95.683Z" fill="white"/>
<path fill-rule="evenodd" clip-rule="evenodd" d="M22.5568 39.852C22.1343 39.0824 22.2632 38.1272 22.8745 37.497L36.7607 23.1819C37.2043 22.7246 37.8393 22.506 38.4705 22.5934C39.1016 22.6807 39.6534 23.0636 39.9561 23.6243L71.2932 81.6625C71.7259 82.4639 71.5625 83.4564 70.8958 84.0769L56.8499 97.1471C56.3985 97.5673 55.7784 97.7556 55.1695 97.6576C54.5607 97.5595 54.0311 97.186 53.7343 96.6454L22.5568 39.852ZM55.4875 95.683L69.5333 82.6127L38.1962 24.5745L24.31 38.8895L55.4875 95.683Z" fill="black"/>
<path fill-rule="evenodd" clip-rule="evenodd" d="M36.6983 50.4981C37.1808 50.2293 37.7898 50.4025 38.0586 50.8849L49.4442 71.3202C49.713 71.8027 49.5398 72.4117 49.0574 72.6805C48.5749 72.9493 47.9659 72.7761 47.6971 72.2936L36.3115 51.8584C36.0427 51.3759 36.2159 50.7669 36.6983 50.4981Z" fill="black"/>
<path d="M76.556 90.7039L103.69 37.0743L89.6441 23.4854L60.7012 80.3307L76.556 90.7039Z" fill="white"/>
<path fill-rule="evenodd" clip-rule="evenodd" d="M105.475 37.9772C105.87 37.1951 105.711 36.2464 105.081 35.6369L91.0348 22.048C90.5788 21.6068 89.9405 21.4082 89.3146 21.5127C88.6888 21.6172 88.1497 22.0125 87.8618 22.5779L58.9189 79.4232C58.4558 80.3329 58.752 81.4454 59.6062 82.0043L75.461 92.3775C75.9371 92.6891 76.5234 92.783 77.0731 92.6359C77.6227 92.4888 78.0837 92.1145 78.3406 91.6068L105.475 37.9772ZM76.556 90.7039L60.7012 80.3307L89.6441 23.4854L103.69 37.0743L76.556 90.7039Z" fill="black"/>
<path fill-rule="evenodd" clip-rule="evenodd" d="M87.635 36.9014C88.1315 37.1435 88.3377 37.7421 88.0956 38.2385L79.9023 55.0432C79.6602 55.5396 79.0616 55.7458 78.5651 55.5038C78.0687 55.2617 77.8625 54.6631 78.1045 54.1667L86.2979 37.362C86.54 36.8656 87.1386 36.6594 87.635 36.9014Z" fill="black"/>
<path d="M85.5585 83.7654C85.5585 95.225 76.2686 104.515 64.809 104.515C53.3494 104.515 44.0595 95.225 44.0595 83.7654C44.0595 72.3057 53.3494 63.0159 64.809 63.0159C76.2686 63.0159 85.5585 72.3057 85.5585 83.7654Z" fill="white"/>
<path fill-rule="evenodd" clip-rule="evenodd" d="M87.5585 83.7654C87.5585 96.3296 77.3732 106.515 64.809 106.515C52.2448 106.515 42.0595 96.3296 42.0595 83.7654C42.0595 71.2012 52.2448 61.0159 64.809 61.0159C77.3732 61.0159 87.5585 71.2012 87.5585 83.7654ZM64.809 104.515C76.2686 104.515 85.5585 95.225 85.5585 83.7654C85.5585 72.3057 76.2686 63.0159 64.809 63.0159C53.3494 63.0159 44.0595 72.3057 44.0595 83.7654C44.0595 95.225 53.3494 104.515 64.809 104.515Z" fill="black"/>
<path fill-rule="evenodd" clip-rule="evenodd" d="M78.0713 83.7653C78.0713 91.09 72.1334 97.028 64.8086 97.028C57.4838 97.028 51.5459 91.09 51.5459 83.7653C51.5459 76.4405 57.4838 70.5026 64.8086 70.5026C72.1334 70.5026 78.0713 76.4405 78.0713 83.7653ZM64.8086 95.028C71.0288 95.028 76.0713 89.9855 76.0713 83.7653C76.0713 77.545 71.0288 72.5026 64.8086 72.5026C58.5884 72.5026 53.5459 77.545 53.5459 83.7653C53.5459 89.9855 58.5884 95.028 64.8086 95.028Z" fill="black"/>
</svg>
