<svg width="128" height="128" viewBox="0 0 128 128" fill="none" xmlns="http://www.w3.org/2000/svg">
<path d="M22.592 105.766C22.592 104.304 23.777 103.119 25.2388 103.119H102.761C104.223 103.119 105.408 104.304 105.408 105.766C105.408 107.227 104.223 108.412 102.761 108.412H25.2388C23.777 108.412 22.592 107.227 22.592 105.766Z" fill="black"/>
<path d="M22.592 21.0697C22.592 19.608 23.777 18.423 25.2388 18.423H102.761C104.223 18.423 105.408 19.608 105.408 21.0697C105.408 22.5315 104.223 23.7165 102.761 23.7165H25.2388C23.777 23.7165 22.592 22.5315 22.592 21.0697Z" fill="black"/>
<path d="M32.4508 28.34C32.4508 24.3027 35.7237 21.0299 39.7609 21.0299H88.1046C92.1418 21.0299 95.4147 24.3027 95.4147 28.34V98.7547C95.4147 102.792 92.1418 106.065 88.1046 106.065H39.7609C35.7237 106.065 32.4508 102.792 32.4508 98.7547V28.34Z" fill="white"/>
<path fill-rule="evenodd" clip-rule="evenodd" d="M39.7609 19.2024H88.1046C93.1512 19.2024 97.2422 23.2934 97.2422 28.34V98.7547C97.2422 103.801 93.1512 107.892 88.1046 107.892H39.7609C34.7144 107.892 30.6233 103.801 30.6233 98.7547V28.34C30.6233 23.2934 34.7144 19.2024 39.7609 19.2024ZM39.7609 21.0299C35.7237 21.0299 32.4508 24.3028 32.4508 28.34V98.7547C32.4508 102.792 35.7237 106.065 39.7609 106.065H88.1046C92.1418 106.065 95.4147 102.792 95.4147 98.7547V28.34C95.4147 24.3028 92.1418 21.0299 88.1046 21.0299H39.7609Z" fill="black"/>
<path d="M32.4508 95.7476H95.4147V98.9408H32.4508V95.7476Z" fill="black"/>
<path d="M26.5142 21.4815C26.5142 18.4535 28.9688 15.9989 31.9968 15.9989H95.8687C98.8967 15.9989 101.351 18.4535 101.351 21.4815V21.9938C101.351 25.0218 98.8966 27.4764 95.8687 27.4764H31.9968C28.9688 27.4764 26.5142 25.0218 26.5142 21.9938V21.4815Z" fill="white"/>
<path fill-rule="evenodd" clip-rule="evenodd" d="M31.9968 14.1713H95.8687C99.906 14.1713 103.179 17.4441 103.179 21.4814V21.9937C103.179 26.031 99.906 29.3038 95.8687 29.3038H31.9968C27.9595 29.3038 24.6867 26.031 24.6867 21.9937V21.4814C24.6867 17.4441 27.9595 14.1713 31.9968 14.1713ZM31.9968 15.9988C28.9688 15.9988 26.5142 18.4534 26.5142 21.4814V21.9937C26.5142 25.0216 28.9688 27.4763 31.9968 27.4763H95.8687C98.8967 27.4763 101.351 25.0216 101.351 21.9937V21.4814C101.351 18.4534 98.8967 15.9988 95.8687 15.9988H31.9968Z" fill="black"/>
<path fill-rule="evenodd" clip-rule="evenodd" d="M80.9456 18.8682C80.9456 18.3636 81.3547 17.9545 81.8594 17.9545H97.8883C98.3929 17.9545 98.802 18.3636 98.802 18.8682C98.802 19.3729 98.3929 19.782 97.8883 19.782H81.8594C81.3547 19.782 80.9456 19.3729 80.9456 18.8682Z" fill="black"/>
<path d="M31.2635 27.4763H96.602C98.3402 27.4763 99.8603 26.5425 100.688 25.1492L27.2261 25.2294C28.0639 26.5782 29.5588 27.4763 31.2635 27.4763Z" fill="black"/>
<path d="M26.5142 105.386C26.5142 102.358 28.9688 99.9032 31.9968 99.9032H95.8687C98.8967 99.9032 101.351 102.358 101.351 105.386V106.519C101.351 109.547 98.8966 112.001 95.8687 112.001H31.9968C28.9688 112.001 26.5142 109.547 26.5142 106.519V105.386Z" fill="white"/>
<path fill-rule="evenodd" clip-rule="evenodd" d="M31.9968 98.0757H95.8687C99.906 98.0757 103.179 101.349 103.179 105.386V106.519C103.179 110.556 99.906 113.829 95.8687 113.829H31.9968C27.9595 113.829 24.6867 110.556 24.6867 106.519V105.386C24.6867 101.349 27.9595 98.0757 31.9968 98.0757ZM31.9968 99.9032C28.9688 99.9032 26.5142 102.358 26.5142 105.386V106.519C26.5142 109.547 28.9688 112.001 31.9968 112.001H95.8687C98.8967 112.001 101.351 109.547 101.351 106.519V105.386C101.351 102.358 98.8967 99.9032 95.8687 99.9032H31.9968Z" fill="black"/>
<path fill-rule="evenodd" clip-rule="evenodd" d="M28.7033 103.564C28.7033 103.059 29.1124 102.65 29.617 102.65H51.9783C52.483 102.65 52.8921 103.059 52.8921 103.564C52.8921 104.069 52.483 104.478 51.9783 104.478H29.617C29.1124 104.478 28.7033 104.069 28.7033 103.564Z" fill="black"/>
<path fill-rule="evenodd" clip-rule="evenodd" d="M90.741 108.011C90.741 107.507 91.1501 107.097 91.6548 107.097H101.351C101.856 107.097 102.265 107.507 102.265 108.011C102.265 108.516 101.856 108.925 101.351 108.925H91.6548C91.1501 108.925 90.741 108.516 90.741 108.011Z" fill="black"/>
<path d="M31.2635 112.172H96.602C98.3402 112.172 99.8603 111.238 100.688 109.845L27.2261 109.925C28.0639 111.274 29.5588 112.172 31.2635 112.172Z" fill="black"/>
<path fill-rule="evenodd" clip-rule="evenodd" d="M39.5871 37.4697C39.5871 36.965 39.9962 36.5559 40.5008 36.5559H87.8949C88.3996 36.5559 88.8087 36.965 88.8087 37.4697C88.8087 37.9743 88.3996 38.3834 87.8949 38.3834H40.5008C39.9962 38.3834 39.5871 37.9743 39.5871 37.4697Z" fill="black"/>
<path fill-rule="evenodd" clip-rule="evenodd" d="M39.5871 53.2017C39.5871 52.6971 39.9962 52.288 40.5008 52.288H87.8949C88.3996 52.288 88.8087 52.6971 88.8087 53.2017C88.8087 53.7064 88.3996 54.1155 87.8949 54.1155H40.5008C39.9962 54.1155 39.5871 53.7064 39.5871 53.2017Z" fill="black"/>
<path fill-rule="evenodd" clip-rule="evenodd" d="M39.5871 58.0499C39.5871 57.5453 39.9962 57.1362 40.5008 57.1362H87.8949C88.3996 57.1362 88.8087 57.5453 88.8087 58.0499C88.8087 58.5546 88.3996 58.9637 87.8949 58.9637H40.5008C39.9962 58.9637 39.5871 58.5546 39.5871 58.0499Z" fill="black"/>
<path fill-rule="evenodd" clip-rule="evenodd" d="M39.5871 62.8983C39.5871 62.3936 39.9962 61.9845 40.5008 61.9845H87.8949C88.3996 61.9845 88.8087 62.3936 88.8087 62.8983C88.8087 63.4029 88.3996 63.812 87.8949 63.812H40.5008C39.9962 63.812 39.5871 63.4029 39.5871 62.8983Z" fill="black"/>
<path fill-rule="evenodd" clip-rule="evenodd" d="M39.5871 67.6476C39.5871 67.1429 39.9962 66.7338 40.5008 66.7338H68.8977C69.4024 66.7338 69.8115 67.1429 69.8115 67.6476C69.8115 68.1522 69.4024 68.5613 68.8977 68.5613H40.5008C39.9962 68.5613 39.5871 68.1522 39.5871 67.6476Z" fill="black"/>
<path fill-rule="evenodd" clip-rule="evenodd" d="M39.5871 42.2081C39.5871 41.7035 39.9962 41.2944 40.5008 41.2944H66.3719C66.8766 41.2944 67.2857 41.7035 67.2857 42.2081C67.2857 42.7128 66.8766 43.1219 66.3719 43.1219H40.5008C39.9962 43.1219 39.5871 42.7128 39.5871 42.2081Z" fill="black"/>
<path fill-rule="evenodd" clip-rule="evenodd" d="M39.5871 85.6445C39.5871 85.1398 39.9962 84.7307 40.5008 84.7307H53.7071C54.2118 84.7307 54.6209 85.1398 54.6209 85.6445C54.6209 86.1491 54.2118 86.5582 53.7071 86.5582H40.5008C39.9962 86.5582 39.5871 86.1491 39.5871 85.6445Z" fill="black"/>
<path fill-rule="evenodd" clip-rule="evenodd" d="M76.5962 80.7021C76.9389 80.3594 77.4038 80.1669 77.8885 80.1669H83.9935C85.0028 80.1669 85.821 80.9851 85.821 81.9944V91.2223C85.821 91.9125 85.4321 92.5439 84.8157 92.8544C84.1992 93.1649 83.4604 93.1016 82.9057 92.6908L80.941 91.2355L78.9762 92.6908C78.4215 93.1016 77.6827 93.1649 77.0663 92.8544C76.4498 92.5439 76.0609 91.9125 76.0609 91.2223V81.9944C76.0609 81.5097 76.2535 81.0449 76.5962 80.7021ZM80.941 88.9613L83.9935 91.2223V81.9944H77.8885V91.2223L80.941 88.9613Z" fill="black"/>
<path d="M88.0928 79.455C88.0928 80.3307 87.0677 80.8023 86.7725 81.5742C86.4727 82.3581 86.8986 83.4402 86.353 84.0583C85.6916 84.8077 84.505 84.5502 83.5785 84.9598C82.7188 85.3399 82.134 86.4143 81.1335 86.4143C80.1331 86.4143 79.5482 85.3399 78.6885 84.9598C77.7621 84.5502 76.5755 84.8077 75.9141 84.0583C75.3685 83.4402 75.7944 82.3581 75.4946 81.5742C75.1993 80.8023 74.1742 80.3307 74.1742 79.455C74.1742 78.5794 75.1993 78.1077 75.4946 77.3358C75.7606 76.6402 75.2718 75.6318 75.734 75.0641C76.349 74.3088 77.1193 74.5484 77.9961 74.1047C78.9389 73.6278 80.0048 72.4957 81.1335 72.4957C82.2622 72.4957 83.3282 73.6278 84.2709 74.1047C85.1478 74.5484 85.9181 74.3088 86.533 75.0641C86.9953 75.6318 86.5064 76.6402 86.7725 77.3358C87.0677 78.1077 88.0928 78.5794 88.0928 79.455Z" fill="white"/>
<path fill-rule="evenodd" clip-rule="evenodd" d="M79.2455 74.4034C78.991 74.5797 78.7041 74.7707 78.4086 74.9202C77.9446 75.1549 77.4621 75.2549 77.1539 75.3187C77.0861 75.3328 77.0267 75.3451 76.9779 75.3567C76.696 75.4236 76.5745 75.4836 76.452 75.6297C76.4504 75.6419 76.4258 75.7399 76.4518 76.0828C76.4544 76.1168 76.4576 76.1546 76.4609 76.1954C76.4744 76.358 76.4918 76.567 76.4929 76.7619C76.4944 77.0155 76.4722 77.3375 76.348 77.6623C76.2237 77.9873 76.035 78.2496 75.8679 78.4518C75.7577 78.5851 75.6222 78.7309 75.5135 78.8479C75.4709 78.8938 75.4323 78.9353 75.4011 78.9698C75.1111 79.2901 75.088 79.3959 75.088 79.4551C75.088 79.5143 75.1111 79.6201 75.4011 79.9404C75.4323 79.9749 75.4709 80.0164 75.5135 80.0622C75.6222 80.1793 75.7577 80.3251 75.8679 80.4584C76.035 80.6606 76.2237 80.9229 76.348 81.2479C76.472 81.5722 76.5096 81.8954 76.5225 82.1618C76.5316 82.3491 76.5292 82.5557 76.5272 82.7235C76.5266 82.7811 76.526 82.8341 76.5259 82.8801C76.525 83.3482 76.5808 83.433 76.5991 83.4537C76.703 83.5714 76.8776 83.6581 77.3485 83.7346C77.4169 83.7457 77.4967 83.7568 77.5851 83.7691C77.9856 83.8248 78.5623 83.905 79.058 84.1241C79.3788 84.2659 79.6483 84.4606 79.8658 84.6359C79.9774 84.7258 80.1273 84.8556 80.2541 84.9654C80.33 85.0311 80.3976 85.0896 80.4438 85.1282C80.8027 85.4277 80.9803 85.5006 81.1335 85.5006C81.2867 85.5006 81.4644 85.4277 81.8232 85.1282C81.8694 85.0896 81.937 85.0311 82.0129 84.9654C82.1397 84.8556 82.2896 84.7258 82.4012 84.6359C82.6187 84.4606 82.8883 84.2659 83.209 84.1241C83.7047 83.905 84.2814 83.8248 84.6819 83.7691C84.7703 83.7568 84.8501 83.7457 84.9185 83.7346C85.3894 83.6581 85.5641 83.5714 85.6679 83.4537C85.6862 83.433 85.742 83.3482 85.7411 82.8801C85.7411 82.8341 85.7404 82.7811 85.7398 82.7235C85.7378 82.5557 85.7354 82.3491 85.7445 82.1618C85.7574 81.8954 85.795 81.5722 85.919 81.2479C86.0433 80.9229 86.232 80.6606 86.3991 80.4584C86.5094 80.3251 86.6448 80.1793 86.7535 80.0623C86.7961 80.0164 86.8347 79.9749 86.8659 79.9404C87.1559 79.6201 87.1791 79.5143 87.1791 79.4551C87.1791 79.3959 87.1559 79.2901 86.8659 78.9698C86.8347 78.9353 86.7962 78.8938 86.7535 78.8479C86.6448 78.7309 86.5094 78.5851 86.3991 78.4518C86.232 78.2496 86.0433 77.9873 85.919 77.6623C85.7948 77.3375 85.7726 77.0155 85.7741 76.7619C85.7752 76.567 85.7926 76.3581 85.8061 76.1954C85.8095 76.1547 85.8126 76.1168 85.8152 76.0828C85.8412 75.7399 85.8166 75.6419 85.815 75.6297C85.6926 75.4836 85.571 75.4236 85.2891 75.3567C85.2403 75.3451 85.1809 75.3328 85.1131 75.3187C84.8049 75.2549 84.3224 75.1549 83.8584 74.9202C83.5629 74.7707 83.276 74.5797 83.0215 74.4034C82.9344 74.3431 82.8519 74.2851 82.7718 74.2289C82.6015 74.1092 82.4423 73.9974 82.2728 73.8868C81.7648 73.5555 81.4111 73.4096 81.1335 73.4096C80.8559 73.4096 80.5022 73.5555 79.9942 73.8868C79.8247 73.9974 79.6655 74.1092 79.4952 74.2289C79.4152 74.2851 79.3327 74.3431 79.2455 74.4034ZM78.9959 72.3561C79.5387 72.0021 80.2824 71.582 81.1335 71.582C81.9846 71.582 82.7283 72.0021 83.2711 72.3561C83.4679 72.4844 83.67 72.6264 83.8523 72.7544C83.926 72.8061 83.9964 72.8556 84.0619 72.9009C84.3076 73.0711 84.5075 73.2005 84.6834 73.2895C84.9119 73.4051 85.0967 73.4445 85.3722 73.5032C85.4713 73.5243 85.5823 73.5479 85.7112 73.5785C86.1802 73.6899 86.7524 73.8863 87.2416 74.4872C87.7248 75.0807 87.6673 75.8319 87.6391 76.1996C87.6385 76.207 87.638 76.2143 87.6374 76.2213C87.6327 76.2831 87.6282 76.339 87.6239 76.3908C87.6116 76.5404 87.6023 76.6547 87.6016 76.7727C87.6007 76.9216 87.6172 76.9865 87.6259 77.0095C87.6493 77.0705 87.6995 77.1565 87.8076 77.2873C87.8843 77.3801 87.9561 77.4572 88.0443 77.5519C88.0961 77.6074 88.1534 77.669 88.2208 77.7433C88.5172 78.0708 89.0066 78.6386 89.0066 79.4551C89.0066 80.2716 88.5172 80.8394 88.2208 81.1669C88.1534 81.2412 88.0961 81.3028 88.0443 81.3583C87.9561 81.453 87.8843 81.5301 87.8076 81.6229C87.6995 81.7537 87.6493 81.8397 87.6259 81.9007C87.6001 81.9683 87.5784 82.0743 87.5699 82.2506C87.5636 82.3795 87.565 82.4987 87.5667 82.6441C87.5676 82.7142 87.5685 82.7905 87.5687 82.8768C87.5694 83.3003 87.5653 84.0657 87.0381 84.663C86.4805 85.2948 85.7311 85.454 85.2118 85.5384C85.0574 85.5635 84.9209 85.5833 84.7979 85.6011C84.4339 85.6538 84.1883 85.6893 83.948 85.7956C83.8389 85.8438 83.7129 85.9259 83.5478 86.059C83.4376 86.1478 83.3596 86.2161 83.2712 86.2935C83.1955 86.3598 83.1121 86.4329 82.9943 86.5312C82.5957 86.8639 81.9808 87.3282 81.1335 87.3282C80.2862 87.3282 79.6713 86.8639 79.2727 86.5312C79.1549 86.4329 79.0715 86.3598 78.9958 86.2935C78.9074 86.2161 78.8294 86.1478 78.7192 86.059C78.5541 85.9259 78.4281 85.8438 78.319 85.7956C78.0787 85.6893 77.8332 85.6538 77.4691 85.6011C77.3461 85.5833 77.2096 85.5635 77.0552 85.5384C76.5359 85.454 75.7865 85.2948 75.2289 84.663C74.7017 84.0657 74.6976 83.3003 74.6984 82.8768C74.6985 82.7905 74.6994 82.7142 74.7003 82.6441C74.702 82.4987 74.7034 82.3795 74.6972 82.2506C74.6886 82.0743 74.6669 81.9683 74.6411 81.9007C74.6177 81.8397 74.5676 81.7537 74.4595 81.6229C74.3827 81.5301 74.3109 81.453 74.2227 81.3583C74.1709 81.3028 74.1136 81.2412 74.0462 81.1669C73.7498 80.8394 73.2604 80.2716 73.2604 79.4551C73.2604 78.6386 73.7498 78.0708 74.0462 77.7433C74.1136 77.669 74.1709 77.6074 74.2227 77.5519C74.3109 77.4572 74.3827 77.3801 74.4595 77.2873C74.5676 77.1565 74.6177 77.0705 74.6411 77.0095C74.6499 76.9865 74.6663 76.9216 74.6654 76.7727C74.6647 76.6547 74.6554 76.5404 74.6431 76.3908C74.6389 76.339 74.6343 76.2831 74.6296 76.2213C74.629 76.2143 74.6285 76.207 74.6279 76.1996C74.5997 75.8319 74.5422 75.0807 75.0254 74.4872C75.5147 73.8863 76.0868 73.6899 76.5558 73.5785C76.6848 73.5479 76.7957 73.5243 76.8949 73.5032C77.1703 73.4445 77.3551 73.4051 77.5836 73.2895C77.7595 73.2005 77.9594 73.0711 78.2051 72.9009C78.2706 72.8556 78.341 72.8062 78.4147 72.7544C78.597 72.6264 78.7991 72.4844 78.9959 72.3561Z" fill="black"/>
<path fill-rule="evenodd" clip-rule="evenodd" d="M84.5711 79.3486C84.5711 81.2974 83.0066 82.9081 81.0387 82.9081C79.0708 82.9081 77.5063 81.2974 77.5063 79.3486C77.5063 77.3999 79.0708 75.7892 81.0387 75.7892C83.0066 75.7892 84.5711 77.3999 84.5711 79.3486ZM81.0387 81.4877C82.2051 81.4877 83.1507 80.53 83.1507 79.3486C83.1507 78.1673 82.2051 77.2096 81.0387 77.2096C79.8723 77.2096 78.9267 78.1673 78.9267 79.3486C78.9267 80.53 79.8723 81.4877 81.0387 81.4877Z" fill="black"/>
</svg>
