<svg width="128" height="128" viewBox="0 0 128 128" fill="none" xmlns="http://www.w3.org/2000/svg">
<path d="M95.7866 64.7763C95.7866 82.3313 81.5554 96.5625 64.0004 96.5625C46.4454 96.5625 32.2142 82.3313 32.2142 64.7763C32.2142 47.2213 46.4454 32.9901 64.0004 32.9901C81.5554 32.9901 95.7866 47.2213 95.7866 64.7763Z" fill="white"/>
<path fill-rule="evenodd" clip-rule="evenodd" d="M97.7866 64.7763C97.7866 83.4359 82.66 98.5625 64.0004 98.5625C45.3408 98.5625 30.2142 83.4359 30.2142 64.7763C30.2142 46.1167 45.3408 30.9901 64.0004 30.9901C82.66 30.9901 97.7866 46.1167 97.7866 64.7763ZM64.0004 96.5625C81.5554 96.5625 95.7866 82.3313 95.7866 64.7763C95.7866 47.2213 81.5554 32.9901 64.0004 32.9901C46.4454 32.9901 32.2142 47.2213 32.2142 64.7763C32.2142 82.3313 46.4454 96.5625 64.0004 96.5625Z" fill="black"/>
<path fill-rule="evenodd" clip-rule="evenodd" d="M59.9996 94.5628C77.5546 94.5628 91.7857 80.3316 91.7857 62.7766C91.7857 51.1213 85.5126 40.9311 76.1585 35.3983C87.6809 40.1723 95.7862 51.5277 95.7862 64.7762C95.7862 82.3313 81.555 96.5624 64 96.5624C58.1003 96.5624 52.576 94.9551 47.8411 92.1545C51.5865 93.7063 55.693 94.5628 59.9996 94.5628Z" fill="black"/>
<path fill-rule="evenodd" clip-rule="evenodd" d="M27.0126 43.028C30.2154 53.3781 36.8894 65.7613 46.2238 77.7921C55.5582 89.8229 65.895 99.3642 75.1248 105.038C79.733 107.871 84.1595 109.798 88.1142 110.535C92.0663 111.271 95.7876 110.851 98.6361 108.641C101.485 106.431 102.815 102.931 103.084 98.9197C103.354 94.906 102.587 90.1395 100.987 84.9719C97.7845 74.6219 91.1106 62.2386 81.7762 50.2079C72.4418 38.1771 62.105 28.6357 52.8752 22.9618C48.267 20.1289 43.8405 18.2018 39.8858 17.4654C35.9336 16.7294 32.2124 17.1486 29.3639 19.3587C26.5154 21.5688 25.1848 25.0692 24.9157 29.0803C24.6465 33.094 25.4135 37.8604 27.0126 43.028ZM47.804 76.5661C29.3521 52.7841 21.6451 27.879 30.5899 20.9389C39.5347 13.9988 61.7441 27.6519 80.196 51.4339C98.6479 75.2158 106.355 100.121 97.4101 107.061C88.4653 114.001 66.2559 100.348 47.804 76.5661Z" fill="black"/>
<path fill-rule="evenodd" clip-rule="evenodd" d="M105.565 52.1884C100.087 61.7074 90.7608 72.405 78.9376 82.1406C67.1143 91.8763 54.8261 98.9768 44.4329 102.526C39.2473 104.298 34.3764 105.239 30.1906 105.08C26.0089 104.921 22.1483 103.634 19.6102 100.552C17.0721 97.4696 16.5499 93.4339 17.1964 89.2993C17.8434 85.1609 19.7019 80.561 22.435 75.8116C27.9129 66.2926 37.2392 55.595 49.0624 45.8594C60.8857 36.1237 73.1739 29.0232 83.5671 25.4735C88.7526 23.7025 93.6236 22.761 97.8093 22.92C101.991 23.0789 105.852 24.3657 108.39 27.448C110.928 30.5304 111.45 34.5661 110.804 38.7007C110.157 42.8391 108.298 47.439 105.565 52.1884ZM77.0306 79.8247C100.267 60.6908 113.27 38.0948 106.074 29.355C98.8773 20.6153 74.2062 29.0414 50.9694 48.1753C27.7326 67.3092 14.7295 89.9052 21.9261 98.645C29.1227 107.385 53.7938 98.9586 77.0306 79.8247Z" fill="black"/>
<path d="M111.601 42.9933C111.601 45.1018 109.891 46.811 107.783 46.811C105.675 46.811 103.965 45.1018 103.965 42.9933C103.965 40.8848 105.675 39.1755 107.783 39.1755C109.891 39.1755 111.601 40.8848 111.601 42.9933Z" fill="black"/>
<path d="M55.5698 46.8109C55.5698 48.9194 53.8605 50.6286 51.7521 50.6286C49.6436 50.6286 47.9343 48.9194 47.9343 46.8109C47.9343 44.7024 49.6436 42.9932 51.7521 42.9932C53.8605 42.9932 55.5698 44.7024 55.5698 46.8109Z" fill="black"/>
<path d="M54.9523 97.2837C54.9523 100.539 52.313 103.179 49.0572 103.179C45.8015 103.179 43.1622 100.539 43.1622 97.2837C43.1622 94.028 45.8015 91.3887 49.0572 91.3887C52.313 91.3887 54.9523 94.028 54.9523 97.2837Z" fill="black"/>
</svg>
