<svg width="128" height="128" viewBox="0 0 128 128" fill="none" xmlns="http://www.w3.org/2000/svg">
<path d="M99.2266 63.9999C99.2266 82.6189 84.133 97.7126 65.514 97.7126C46.895 97.7126 31.8013 82.6189 31.8013 63.9999C31.8013 45.3809 46.895 30.2872 65.514 30.2872C84.133 30.2872 99.2266 45.3809 99.2266 63.9999Z" fill="white"/>
<path fill-rule="evenodd" clip-rule="evenodd" d="M101.227 63.9999C101.227 83.7235 85.2375 99.7126 65.514 99.7126C45.7904 99.7126 29.8013 83.7235 29.8013 63.9999C29.8013 44.2763 45.7904 28.2872 65.514 28.2872C85.2375 28.2872 101.227 44.2763 101.227 63.9999ZM65.514 97.7126C84.133 97.7126 99.2266 82.6189 99.2266 63.9999C99.2266 45.3809 84.133 30.2872 65.514 30.2872C46.895 30.2872 31.8013 45.3809 31.8013 63.9999C31.8013 82.6189 46.895 97.7126 65.514 97.7126Z" fill="black"/>
<path fill-rule="evenodd" clip-rule="evenodd" d="M61.514 93.7126C80.133 93.7126 95.2267 78.6189 95.2267 59.9999C95.2267 51.7087 92.2336 44.1165 87.2689 38.245C94.5826 44.4291 99.2267 53.6722 99.2267 63.9999C99.2267 82.6189 84.133 97.7126 65.514 97.7126C55.1862 97.7126 45.9431 93.0686 39.759 85.7549C45.6306 90.7195 53.2227 93.7126 61.514 93.7126Z" fill="black"/>
<path d="M73.8596 81.0698C100.725 65.5589 118.092 45.3424 112.649 35.9149C109.359 30.2174 98.4919 29.7645 84.4772 33.7217C86.3556 34.9365 88.3506 36.5318 89.1133 37.1777C96.2999 35.928 101.518 36.6872 103.303 39.7797C107.265 46.6427 92.8246 62.3981 71.0486 74.9705C49.2725 87.543 28.4074 92.1714 24.4451 85.3085C22.5265 81.9853 24.9228 76.5771 30.3775 70.455C30.001 68.5064 29.7964 65.6603 29.7855 64.4531C17.7893 75.4016 11.8341 85.9787 15.3596 92.085C20.8025 101.512 46.9938 96.5808 73.8596 81.0698Z" fill="white"/>
<path fill-rule="evenodd" clip-rule="evenodd" d="M31.7448 59.9572L31.7854 64.4349C31.7955 65.5496 31.9926 68.2713 32.3412 70.0756L32.5288 71.0468L31.8707 71.7854C29.221 74.7594 27.4179 77.4492 26.4961 79.6917C25.5607 81.9674 25.666 83.423 26.1772 84.3084C26.7053 85.2232 27.9797 86.0663 30.5693 86.37C33.1133 86.6685 36.5291 86.3857 40.6336 85.4752C48.8185 83.6595 59.287 79.4516 70.0486 73.2385C80.8101 67.0253 89.6885 60.0632 95.3534 53.8827C98.1941 50.7834 100.147 47.9666 101.16 45.6142C102.192 43.2197 102.099 41.6945 101.571 40.7797C101.096 39.9559 100.022 39.1898 97.8924 38.821C95.7797 38.4551 92.9304 38.5439 89.4559 39.1481L88.5345 39.3083L87.8208 38.7039C87.0952 38.0895 85.1719 36.5527 83.3911 35.401L79.6769 32.9989L83.9337 31.7969C91.061 29.7844 97.5266 28.8503 102.72 29.2023C107.84 29.5493 112.235 31.1982 114.381 34.9149C116.158 37.992 115.928 41.7076 114.538 45.4608C113.143 49.229 110.482 53.3298 106.887 57.5143C99.6853 65.8979 88.4345 74.9644 74.8596 82.8019C61.2847 90.6393 47.8074 95.8496 36.9461 97.8947C31.525 98.9155 26.6431 99.1694 22.6821 98.4938C18.7368 97.8208 15.4041 96.162 13.6275 93.0849C11.3337 89.112 12.3399 84.1066 14.9873 79.1436C17.6817 74.0923 22.3467 68.5345 28.4373 62.9758L31.7448 59.9572ZM87.0286 33.0411C99.8012 29.8401 109.562 30.5681 112.649 35.9149C118.092 45.3423 100.725 65.5589 73.8596 81.0698C46.9938 96.5807 20.8025 101.512 15.3596 92.0849C12.0276 86.3139 17.1641 76.5494 27.8651 66.2521C28.4867 65.654 29.127 65.0541 29.7855 64.4531C29.7908 65.0327 29.8407 65.9901 29.9328 67.0445C30.0325 68.1863 30.1818 69.4419 30.3775 70.4549C24.9228 76.5771 22.5265 81.9853 24.4451 85.3084C28.4074 92.1714 49.2725 87.5429 71.0486 74.9705C92.8246 62.3981 107.265 46.6426 103.303 39.7797C101.518 36.6871 96.2999 35.928 89.1133 37.1776C88.6431 36.7795 87.7046 36.0205 86.6138 35.2123C85.9352 34.7094 85.1976 34.1875 84.4772 33.7216C85.34 33.478 86.1908 33.2511 87.0286 33.0411Z" fill="black"/>
<path fill-rule="evenodd" clip-rule="evenodd" d="M110.649 34.9149C116.092 44.3424 98.7253 64.5589 71.8595 80.0699C49.6098 92.9158 27.8225 98.5055 17.9008 94.6918C26.606 100.292 49.9661 94.8648 73.8595 81.0699C100.725 65.5589 118.092 45.3424 112.649 35.9149C111.714 34.2952 110.166 33.0993 108.108 32.3081C109.191 33.0047 110.047 33.8719 110.649 34.9149ZM87.7445 36.0723C88.3341 36.5321 88.8168 36.9266 89.1133 37.1777C93.6057 36.3965 97.3287 36.4003 99.9249 37.2683C97.5549 35.5368 93.2628 35.1896 87.7445 36.0723ZM30.0144 67.8942C29.4496 68.3897 28.8375 68.9552 28.3775 69.455C24.1471 74.0505 20.5265 80.9853 22.4451 84.3085C23.1145 85.4679 24.2663 86.2993 25.8234 86.8199C25.2469 86.3987 24.7841 85.8957 24.4451 85.3085C22.5265 81.9853 24.9228 76.5772 30.3775 70.455C30.2294 69.6888 30.108 68.7838 30.0144 67.8942Z" fill="black"/>
<path fill-rule="evenodd" clip-rule="evenodd" d="M100.953 33.293C98.5026 33.1389 95.7964 33.4214 93.3081 33.8756C93.0364 33.9252 92.776 33.7452 92.7264 33.4736C92.6768 33.2019 92.8568 32.9415 93.1285 32.8919C95.6611 32.4295 98.4548 32.1339 101.015 32.2949C103.564 32.4552 105.955 33.0724 107.608 34.5061C107.817 34.6871 107.839 35.0029 107.659 35.2115C107.478 35.4201 107.162 35.4425 106.953 35.2616C105.544 34.039 103.414 33.4478 100.953 33.293Z" fill="black"/>
<path fill-rule="evenodd" clip-rule="evenodd" d="M51.2258 89.2083C51.4559 89.7104 51.2354 90.304 50.7334 90.5341C42.1655 94.461 31.6671 95.6436 27.467 95.7497C26.9149 95.7636 26.456 95.3274 26.442 94.7752C26.4281 94.2231 26.8644 93.7643 27.4165 93.7503C31.4663 93.648 41.6679 92.489 49.9001 88.7159C50.4021 88.4858 50.9957 88.7063 51.2258 89.2083Z" fill="white"/>
<path d="M87.3745 56.5089C87.3745 57.5099 86.563 58.3214 85.562 58.3214C84.561 58.3214 83.7495 57.5099 83.7495 56.5089C83.7495 55.5079 84.561 54.6964 85.562 54.6964C86.563 54.6964 87.3745 55.5079 87.3745 56.5089Z" fill="black"/>
<path d="M57.3892 40.0573C57.3892 41.0583 56.5777 41.8698 55.5767 41.8698C54.5756 41.8698 53.7642 41.0583 53.7642 40.0573C53.7642 39.0562 54.5756 38.2448 55.5767 38.2448C56.5777 38.2448 57.3892 39.0562 57.3892 40.0573Z" fill="black"/>
<path d="M44.1919 53.8839C44.1919 54.8849 43.3804 55.6964 42.3794 55.6964C41.3784 55.6964 40.5669 54.8849 40.5669 53.8839C40.5669 52.8829 41.3784 52.0714 42.3794 52.0714C43.3804 52.0714 44.1919 52.8829 44.1919 53.8839Z" fill="black"/>
<path d="M53.1294 72.1339C53.1294 73.6872 51.8702 74.9464 50.3169 74.9464C48.7636 74.9464 47.5044 73.6872 47.5044 72.1339C47.5044 70.5806 48.7636 69.3214 50.3169 69.3214C51.8702 69.3214 53.1294 70.5806 53.1294 72.1339Z" fill="black"/>
<path d="M65.7739 53.6964C65.7739 55.2497 64.5147 56.5089 62.9614 56.5089C61.4081 56.5089 60.1489 55.2497 60.1489 53.6964C60.1489 52.1431 61.4081 50.8839 62.9614 50.8839C64.5147 50.8839 65.7739 52.1431 65.7739 53.6964Z" fill="black"/>
<path d="M79.6538 41.8698C79.6538 43.4231 78.3946 44.6823 76.8413 44.6823C75.288 44.6823 74.0288 43.4231 74.0288 41.8698C74.0288 40.3165 75.288 39.0573 76.8413 39.0573C78.3946 39.0573 79.6538 40.3165 79.6538 41.8698Z" fill="black"/>
<path d="M75.1181 69.3214C75.1181 70.8747 73.8589 72.1339 72.3056 72.1339C70.7523 72.1339 69.4931 70.8747 69.4931 69.3214C69.4931 67.7681 70.7523 66.5089 72.3056 66.5089C73.8589 66.5089 75.1181 67.7681 75.1181 69.3214Z" fill="black"/>
</svg>
