<svg width="128" height="128" viewBox="0 0 128 128" fill="none" xmlns="http://www.w3.org/2000/svg">
<path d="M60.7521 19.79C60.7521 18.6855 61.6475 17.79 62.7521 17.79H64.4198C65.5243 17.79 66.4198 18.6855 66.4198 19.79V36.4695C66.4198 37.574 65.5243 38.4695 64.4198 38.4695H62.7521C61.6475 38.4695 60.7521 37.574 60.7521 36.4695V19.79Z" fill="white"/>
<path fill-rule="evenodd" clip-rule="evenodd" d="M62.7521 15.79H64.4198C66.6289 15.79 68.4198 17.5809 68.4198 19.79V36.4695C68.4198 38.6786 66.6289 40.4695 64.4198 40.4695H62.7521C60.5429 40.4695 58.7521 38.6786 58.7521 36.4695V19.79C58.7521 17.5809 60.5429 15.79 62.7521 15.79ZM62.7521 17.79C61.6475 17.79 60.7521 18.6855 60.7521 19.79V36.4695C60.7521 37.574 61.6475 38.4695 62.7521 38.4695H64.4198C65.5243 38.4695 66.4198 37.574 66.4198 36.4695V19.79C66.4198 18.6855 65.5243 17.79 64.4198 17.79H62.7521Z" fill="black"/>
<path d="M76.7362 66.3233L86.3465 106.355C86.8044 108.326 85.3079 110.21 83.2845 110.21H82.8535C81.5181 110.21 80.3284 109.366 79.8868 108.106L65.8061 68.0741C65.0899 66.03 66.6069 63.891 68.7728 63.891H73.6742C75.1363 63.891 76.4054 64.8991 76.7362 66.3233Z" fill="black"/>
<path d="M48.0339 66.3233L38.4236 106.355C37.9658 108.326 39.4622 110.21 41.4857 110.21H41.9166C43.2521 110.21 44.4418 109.366 44.8834 108.106L58.9641 68.0741C59.6803 66.03 58.1632 63.891 55.9973 63.891H51.096C49.6338 63.891 48.3647 64.8991 48.0339 66.3233Z" fill="black"/>
<path d="M58.2674 65.214L59.6027 104.764C59.6757 106.388 61.014 107.668 62.6401 107.668C64.2399 107.668 65.5661 106.428 65.6736 104.832L68.13 65.3027C68.2843 63.0123 66.4681 61.0696 64.1725 61.0696H62.2299C59.9694 61.0696 58.166 62.9558 58.2674 65.214Z" fill="black"/>
<path d="M18.1294 28.348C18.1294 27.2435 19.0248 26.348 20.1294 26.348H105.051C106.155 26.348 107.051 27.2435 107.051 28.348V79.4932C107.051 80.5977 106.155 81.4932 105.051 81.4932H20.1294C19.0248 81.4932 18.1294 80.5977 18.1294 79.4932V28.348Z" fill="white"/>
<path fill-rule="evenodd" clip-rule="evenodd" d="M20.1294 24.348H105.051C107.26 24.348 109.051 26.1389 109.051 28.348V79.4932C109.051 81.7023 107.26 83.4932 105.051 83.4932H20.1294C17.9202 83.4932 16.1294 81.7023 16.1294 79.4932V28.348C16.1294 26.1389 17.9203 24.348 20.1294 24.348ZM20.1294 26.348C19.0248 26.348 18.1294 27.2435 18.1294 28.348V79.4932C18.1294 80.5977 19.0248 81.4932 20.1294 81.4932H105.051C106.155 81.4932 107.051 80.5977 107.051 79.4932V28.348C107.051 27.2435 106.155 26.348 105.051 26.348H20.1294Z" fill="black"/>
<path d="M28.5837 78.5911C28.5837 77.4865 29.4791 76.5911 30.5837 76.5911H38.9913C40.0959 76.5911 40.9913 77.4865 40.9913 78.5911V79.4929C40.9913 80.5974 40.0959 81.4929 38.9913 81.4929H30.5837C29.4791 81.4929 28.5837 80.5974 28.5837 79.4929V78.5911Z" fill="black"/>
<path d="M15.2188 24.4332C15.2188 23.3757 16.076 22.5184 17.1335 22.5184H110.153C111.21 22.5184 112.067 23.3757 112.067 24.4332C112.067 25.4907 111.21 26.348 110.153 26.348H17.1335C16.076 26.348 15.2188 25.4907 15.2188 24.4332Z" fill="white"/>
<path fill-rule="evenodd" clip-rule="evenodd" d="M17.1335 20.5184H110.153C112.315 20.5184 114.067 22.2711 114.067 24.4332C114.067 26.5953 112.315 28.348 110.153 28.348H17.1335C14.9715 28.348 13.2188 26.5953 13.2188 24.4332C13.2188 22.2711 14.9714 20.5184 17.1335 20.5184ZM17.1335 22.5184C16.076 22.5184 15.2188 23.3757 15.2188 24.4332C15.2188 25.4907 16.076 26.348 17.1335 26.348H110.153C111.21 26.348 112.067 25.4907 112.067 24.4332C112.067 23.3757 111.21 22.5184 110.153 22.5184H17.1335Z" fill="black"/>
<path d="M15.2188 83.4079C15.2188 82.3504 16.076 81.4932 17.1335 81.4932H110.153C111.21 81.4932 112.067 82.3504 112.067 83.4079C112.067 84.4654 111.21 85.3227 110.153 85.3227H17.1335C16.076 85.3227 15.2188 84.4654 15.2188 83.4079Z" fill="white"/>
<path fill-rule="evenodd" clip-rule="evenodd" d="M17.1335 79.4932H110.153C112.315 79.4932 114.067 81.2459 114.067 83.4079C114.067 85.57 112.315 87.3227 110.153 87.3227H17.1335C14.9715 87.3227 13.2188 85.57 13.2188 83.4079C13.2188 81.2459 14.9714 79.4932 17.1335 79.4932ZM17.1335 81.4932C16.076 81.4932 15.2188 82.3504 15.2188 83.4079C15.2188 84.4654 16.076 85.3227 17.1335 85.3227H110.153C111.21 85.3227 112.067 84.4654 112.067 83.4079C112.067 82.3504 111.21 81.4932 110.153 81.4932H17.1335Z" fill="black"/>
<path fill-rule="evenodd" clip-rule="evenodd" d="M33.6378 46.4108C33.6378 45.8585 34.0855 45.4108 34.6378 45.4108H42.3932C42.9455 45.4108 43.3932 45.8585 43.3932 46.4108C43.3932 46.9631 42.9455 47.4108 42.3932 47.4108H35.6378V57.9017H42.3932C42.9455 57.9017 43.3932 58.3494 43.3932 58.9017C43.3932 59.454 42.9455 59.9017 42.3932 59.9017H34.6378C34.0855 59.9017 33.6378 59.454 33.6378 58.9017V46.4108Z" fill="black"/>
<path fill-rule="evenodd" clip-rule="evenodd" d="M46.5693 52.0292C46.5693 51.4769 47.0171 51.0292 47.5693 51.0292H53.2489C53.8012 51.0292 54.2489 51.4769 54.2489 52.0292C54.2489 52.5815 53.8012 53.0292 53.2489 53.0292H47.5693C47.0171 53.0292 46.5693 52.5815 46.5693 52.0292Z" fill="black"/>
<path fill-rule="evenodd" clip-rule="evenodd" d="M46.5693 55.5504C46.5693 54.9981 47.0171 54.5504 47.5693 54.5504H53.2489C53.8012 54.5504 54.2489 54.9981 54.2489 55.5504C54.2489 56.1027 53.8012 56.5504 53.2489 56.5504H47.5693C47.0171 56.5504 46.5693 56.1027 46.5693 55.5504Z" fill="black"/>
<path fill-rule="evenodd" clip-rule="evenodd" d="M34.8875 52.2477C34.8875 51.6954 35.3352 51.2477 35.8875 51.2477H40.8018C41.3541 51.2477 41.8018 51.6954 41.8018 52.2477C41.8018 52.8 41.3541 53.2477 40.8018 53.2477H35.8875C35.3352 53.2477 34.8875 52.8 34.8875 52.2477Z" fill="black"/>
<path fill-rule="evenodd" clip-rule="evenodd" d="M77.3431 50.3643C78.1829 49.2343 79.4683 48.6292 81.1063 48.6292C82.4338 48.6291 83.3875 49.2012 84.0189 49.9006C84.6256 50.5726 84.9267 51.3474 85.0543 51.8314C85.1951 52.3654 84.8763 52.9124 84.3422 53.0532C83.8082 53.194 83.2611 52.8752 83.1203 52.3412C83.0461 52.0598 82.864 51.606 82.5343 51.2408C82.2293 50.9029 81.7935 50.6291 81.1064 50.6292C80.005 50.6292 79.357 51.0074 78.9482 51.5574C78.5027 52.1567 78.2394 53.0999 78.2392 54.3825C78.239 55.6203 78.5719 56.5185 79.0552 57.0896C79.5237 57.6432 80.2026 57.9742 81.1064 57.9742C82.0742 57.9742 82.7317 57.3435 83.1804 56.3777C83.4131 55.8769 84.0078 55.6595 84.5086 55.8922C85.0095 56.1249 85.2269 56.7195 84.9942 57.2204C84.3949 58.5105 83.1999 59.9742 81.1064 59.9742C79.6614 59.9742 78.4065 59.419 77.5285 58.3816C76.6653 57.3616 76.239 55.9639 76.2392 54.3822C76.2394 52.8782 76.5399 51.4448 77.3431 50.3643Z" fill="black"/>
<path fill-rule="evenodd" clip-rule="evenodd" d="M90.0643 43.5338C91.1714 43.6124 92.2933 44.2643 92.7626 45.4177C93.1046 46.258 93.0743 47.0125 92.8071 47.6724C92.5699 48.2581 92.1615 48.7156 91.8908 49.019C91.8848 49.0256 91.8789 49.0322 91.8731 49.0387C91.8534 49.0608 91.8327 49.0821 91.8111 49.1023L90.2973 50.5224H92.6497C93.202 50.5224 93.6497 50.9702 93.6497 51.5224C93.6497 52.0747 93.202 52.5224 92.6497 52.5224H87.7698C87.3595 52.5224 86.9909 52.2718 86.8399 51.8903C86.689 51.5088 86.7864 51.0738 87.0856 50.7931L90.4099 47.6745C90.693 47.3558 90.8638 47.1426 90.9533 46.9216C91.021 46.7545 91.06 46.5398 90.9101 46.1715C90.7738 45.8365 90.3988 45.5626 89.9226 45.5288C89.4857 45.4978 89.0432 45.6782 88.7711 46.1827C88.509 46.6689 87.9024 46.8504 87.4163 46.5883C86.9302 46.3262 86.7486 45.7196 87.0108 45.2335C87.6904 43.973 88.9178 43.4525 90.0643 43.5338Z" fill="black"/>
<path fill-rule="evenodd" clip-rule="evenodd" d="M58.8079 48.9916C59.3601 48.9916 59.8079 49.4393 59.8079 49.9916V58.9742C59.8079 59.5265 59.3601 59.9742 58.8079 59.9742C58.2556 59.9742 57.8079 59.5265 57.8079 58.9742V49.9916C57.8079 49.4393 58.2556 48.9916 58.8079 48.9916Z" fill="black"/>
<path fill-rule="evenodd" clip-rule="evenodd" d="M57.8079 53.8592C57.808 51.3827 60.2418 49.2091 63.0835 49.6912C64.3588 49.9075 65.1673 50.7138 65.6358 51.5395C66.092 52.3433 66.2663 53.2234 66.2918 53.8161C66.2925 53.8305 66.2928 53.8449 66.2928 53.8593V59.0149C66.2928 59.5671 65.8451 60.0149 65.2928 60.0149C64.7405 60.0149 64.2928 59.5671 64.2928 59.0149V53.883C64.2748 53.5411 64.1622 52.995 63.8964 52.5266C63.6379 52.071 63.2782 51.7528 62.749 51.663C61.0792 51.3797 59.8079 52.67 59.8079 53.8593C59.8078 54.4115 59.3601 54.8592 58.8078 54.8592C58.2555 54.8592 57.8078 54.4115 57.8079 53.8592Z" fill="black"/>
<path fill-rule="evenodd" clip-rule="evenodd" d="M64.2927 53.8592C64.2928 51.3827 66.7266 49.2091 69.5683 49.6912C70.8436 49.9075 71.6521 50.7138 72.1207 51.5395C72.5768 52.3433 72.7511 53.2234 72.7767 53.8161C72.7773 53.8305 72.7776 53.8449 72.7776 53.8593V59.0149C72.7776 59.5671 72.3299 60.0149 71.7776 60.0149C71.2254 60.0149 70.7776 59.5671 70.7776 59.0149V53.883C70.7596 53.5411 70.6471 52.995 70.3812 52.5266C70.1227 52.071 69.7631 51.7528 69.2338 51.663C67.5641 51.3797 66.2928 52.67 66.2927 53.8593C66.2927 54.4115 65.845 54.8592 65.2927 54.8592C64.7404 54.8592 64.2927 54.4115 64.2927 53.8592Z" fill="black"/>
</svg>
