<svg width="128" height="128" viewBox="0 0 128 128" fill="none" xmlns="http://www.w3.org/2000/svg">
<path d="M6.3951 51.458C6.13795 46.5113 10.254 42.3795 15.194 42.7438C27.2949 43.6362 48.5629 45.0211 64 45.0211C79.4371 45.0211 100.705 43.6362 112.806 42.7438C117.746 42.3795 121.862 46.5113 121.605 51.458C121.468 54.0856 121.364 56.8524 121.364 59.1723C121.364 61.4921 121.468 64.2589 121.605 66.8865C121.862 71.8332 117.746 75.965 112.806 75.6007C100.705 74.7083 79.4371 73.3234 64 73.3234C48.5629 73.3234 27.2949 74.7083 15.194 75.6007C10.254 75.965 6.13795 71.8332 6.3951 66.8865C6.53169 64.2589 6.63606 61.4921 6.63606 59.1723C6.63606 56.8524 6.53169 54.0856 6.3951 51.458Z" fill="white"/>
<path fill-rule="evenodd" clip-rule="evenodd" d="M15.341 40.7492C27.4427 41.6416 48.6445 43.0211 64 43.0211C79.3555 43.0211 100.557 41.6416 112.659 40.7492C118.832 40.294 123.92 45.4458 123.602 51.5618C123.466 54.1759 123.364 56.9031 123.364 59.1722C123.364 61.4414 123.466 64.1686 123.602 66.7827C123.92 72.8987 118.832 78.0505 112.659 77.5953C100.557 76.7029 79.3555 75.3234 64 75.3234C48.6445 75.3234 27.4427 76.7029 15.3411 77.5953C9.16775 78.0505 4.07987 72.8987 4.3978 66.7827C4.53369 64.1686 4.63607 61.4414 4.63607 59.1722C4.63607 56.9031 4.53369 54.1759 4.3978 51.5618C4.07987 45.4458 9.16774 40.294 15.341 40.7492ZM15.194 42.7438C10.254 42.3795 6.13796 46.5113 6.39511 51.458C6.5317 54.0856 6.63607 56.8524 6.63607 59.1722C6.63607 61.4921 6.5317 64.2589 6.39511 66.8865C6.13796 71.8332 10.254 75.9649 15.194 75.6007C27.2949 74.7083 48.5629 73.3234 64 73.3234C79.4371 73.3234 100.705 74.7083 112.806 75.6007C117.746 75.9649 121.862 71.8332 121.605 66.8865C121.468 64.2589 121.364 61.4921 121.364 59.1722C121.364 56.8524 121.468 54.0856 121.605 51.458C121.862 46.5113 117.746 42.3795 112.806 42.7438C100.705 43.6362 79.4371 45.0211 64 45.0211C48.5629 45.0211 27.2949 43.6362 15.194 42.7438Z" fill="black"/>
<path d="M54.5355 43.2145C54.6108 42.1747 55.4775 41.3751 56.52 41.3751H74.939C75.9815 41.3751 76.8482 42.1747 76.9235 43.2145C77.17 46.6169 77.6586 54.0225 77.6586 59.2501C77.6586 64.4778 77.17 71.8834 76.9235 75.2858C76.8482 76.3256 75.9815 77.1251 74.939 77.1251H56.52C55.4775 77.1251 54.6108 76.3256 54.5355 75.2858C54.2891 71.8834 53.8004 64.4778 53.8004 59.2501C53.8004 54.0225 54.2891 46.6169 54.5355 43.2145Z" fill="black"/>
<path d="M60.9171 68.4252H69.9598V84.4383L65.4385 79.9169L60.9171 84.4383V68.4252Z" fill="white"/>
<path fill-rule="evenodd" clip-rule="evenodd" d="M58.9171 68.4252C58.9171 67.3206 59.8125 66.4252 60.9171 66.4252H69.9598C71.0644 66.4252 71.9598 67.3206 71.9598 68.4252V84.4383C71.9598 85.2472 71.4725 85.9765 70.7252 86.286C69.9778 86.5956 69.1176 86.4245 68.5456 85.8525L65.4385 82.7454L62.3313 85.8525C61.7593 86.4245 60.8991 86.5956 60.1517 86.286C59.4044 85.9765 58.9171 85.2472 58.9171 84.4383V68.4252ZM65.4385 79.9169L69.9598 84.4383V68.4252H60.9171V84.4383L65.4385 79.9169Z" fill="black"/>
<path d="M76.0318 64.6639C76.0318 65.961 74.5134 66.6595 74.0761 67.8028C73.632 68.9639 74.2629 70.5667 73.4548 71.4822C72.4751 72.5922 70.7175 72.2108 69.3452 72.8175C68.0718 73.3805 67.2055 74.972 65.7237 74.972C64.2418 74.972 63.3756 73.3805 62.1022 72.8175C60.7299 72.2108 58.9723 72.5922 57.9926 71.4822C57.1845 70.5667 57.8154 68.9639 57.3713 67.8028C56.934 66.6595 55.4156 65.961 55.4156 64.6639C55.4156 63.3669 56.934 62.6683 57.3713 61.525C57.7654 60.4945 57.0413 59.001 57.726 58.1601C58.6369 57.0413 59.7778 57.3962 61.0766 56.7391C62.473 56.0327 64.0518 54.3558 65.7237 54.3558C67.3955 54.3558 68.9744 56.0327 70.3708 56.7391C71.6696 57.3962 72.8105 57.0413 73.7214 58.1601C74.4061 59.001 73.682 60.4945 74.0761 61.525C74.5134 62.6683 76.0318 63.3669 76.0318 64.6639Z" fill="white"/>
<path fill-rule="evenodd" clip-rule="evenodd" d="M62.726 56.8908C62.3507 57.1507 61.9425 57.4217 61.5281 57.6314C60.8886 57.9549 60.2361 58.0909 59.7757 58.1868C59.668 58.2092 59.5708 58.2295 59.4868 58.2494C59.0238 58.3593 58.758 58.4764 58.5015 58.7914C58.4457 58.86 58.3864 59.0328 58.4368 59.6957C58.441 59.7504 58.4459 59.8098 58.4511 59.8725C58.471 60.1131 58.4951 60.4035 58.4967 60.6768C58.4988 61.0322 58.467 61.4594 58.3053 61.8822C58.1407 62.3125 57.8881 62.667 57.6519 62.9526C57.4955 63.1417 57.3089 63.3425 57.15 63.5136C57.0842 63.5845 57.023 63.6502 56.9708 63.7079C56.5401 64.1837 56.4156 64.4298 56.4156 64.6639C56.4156 64.898 56.5401 65.1441 56.9708 65.6199C57.023 65.6776 57.0842 65.7434 57.15 65.8143C57.309 65.9853 57.4955 66.1861 57.6519 66.3752C57.8881 66.6608 58.1407 67.0153 58.3053 67.4456C58.47 67.8763 58.5226 68.3131 58.5409 68.6903C58.5538 68.9559 58.5505 69.2436 58.5476 69.4901C58.5466 69.5785 58.5456 69.6615 58.5454 69.7364C58.5442 70.4211 58.6168 70.6783 58.7424 70.8205C58.9839 71.0942 59.3538 71.2366 60.0606 71.3516C60.1748 71.3701 60.3028 71.388 60.441 71.4074C61.0371 71.4909 61.8236 71.601 62.5065 71.9029C62.9407 72.0949 63.3121 72.3615 63.6243 72.6129C63.7886 72.7454 63.9921 72.9218 64.1731 73.0786C64.2884 73.1785 64.3945 73.2705 64.4756 73.3382C65.0148 73.7883 65.3626 73.972 65.7237 73.972C66.0848 73.972 66.4326 73.7883 66.9718 73.3382C67.0529 73.2705 67.159 73.1785 67.2744 73.0785C67.4553 72.9217 67.6588 72.7454 67.8231 72.6129C68.1352 72.3615 68.5067 72.0949 68.9409 71.9029C69.6237 71.601 70.4102 71.4909 71.0064 71.4074C71.1446 71.388 71.2726 71.3701 71.3867 71.3516C72.0936 71.2366 72.4634 71.0942 72.705 70.8205C72.8306 70.6783 72.9032 70.4211 72.9019 69.7364C72.9018 69.6616 72.9008 69.5785 72.8998 69.4901C72.8969 69.2436 72.8936 68.9559 72.9065 68.6903C72.9248 68.3131 72.9774 67.8763 73.1421 67.4456C73.3067 67.0153 73.5593 66.6608 73.7955 66.3752C73.9518 66.1861 74.1384 65.9853 74.2973 65.8143C74.3632 65.7434 74.4243 65.6776 74.4766 65.6199C74.9073 65.1441 75.0318 64.898 75.0318 64.6639C75.0318 64.4298 74.9073 64.1837 74.4766 63.7079C74.4243 63.6502 74.3632 63.5844 74.2973 63.5136C74.1384 63.3425 73.9518 63.1417 73.7955 62.9526C73.5593 62.667 73.3067 62.3125 73.1421 61.8822C72.9804 61.4594 72.9486 61.0322 72.9507 60.6768C72.9523 60.4035 72.9764 60.1131 72.9963 59.8724C73.0015 59.8097 73.0064 59.7504 73.0106 59.6957C73.061 59.0328 73.0017 58.86 72.9459 58.7914C72.6894 58.4764 72.4236 58.3593 71.9606 58.2494C71.8766 58.2295 71.7794 58.2092 71.6717 58.1868C71.2113 58.0909 70.5588 57.9549 69.9193 57.6314C69.5048 57.4217 69.0967 57.1507 68.7214 56.8908C68.5968 56.8045 68.4768 56.7203 68.3593 56.6377C68.1043 56.4585 67.8605 56.2873 67.6043 56.1202C66.8451 55.6251 66.2458 55.3558 65.7237 55.3558C65.2016 55.3558 64.6023 55.6251 63.8431 56.1202C63.5869 56.2873 63.3431 56.4585 63.0881 56.6377C62.9705 56.7203 62.8506 56.8045 62.726 56.8908ZM62.7506 54.4449C63.5479 53.925 64.5739 53.3558 65.7237 53.3558C66.8735 53.3558 67.8995 53.925 68.6968 54.4449C68.9829 54.6315 69.2737 54.8357 69.5419 55.0241C69.6524 55.1017 69.759 55.1767 69.86 55.2465C70.2257 55.4998 70.5385 55.7033 70.8222 55.8468C71.2043 56.0401 71.5308 56.1096 71.9566 56.2002C72.0989 56.2304 72.2523 56.2631 72.4225 56.3035C73.0824 56.4601 73.8425 56.725 74.4968 57.5287C75.1227 58.2974 75.0475 59.286 75.0054 59.8393L75.0048 59.8473C74.9984 59.9322 74.9919 60.0113 74.9858 60.086C74.9671 60.3127 74.9518 60.4995 74.9507 60.6887C74.9493 60.9294 74.9748 61.0753 75.0101 61.1678C75.0642 61.3091 75.1653 61.4707 75.3368 61.6782C75.4566 61.823 75.5737 61.9487 75.7099 62.0951C75.7858 62.1766 75.8677 62.2645 75.9593 62.3657C76.3971 62.8493 77.0318 63.601 77.0318 64.6639C77.0318 65.7269 76.3971 66.4785 75.9593 66.9622C75.8677 67.0633 75.7858 67.1512 75.7099 67.2328C75.5737 67.3791 75.4566 67.5048 75.3368 67.6497C75.1653 67.8571 75.0642 68.0187 75.0101 68.1601C74.9528 68.3099 74.9177 68.5089 74.9041 68.7874C74.8943 68.9892 74.8966 69.1812 74.8992 69.4031C74.9004 69.5054 74.9017 69.614 74.9019 69.7328C74.9031 70.3686 74.887 71.3707 74.2045 72.144C73.4664 72.9803 72.4675 73.2021 71.7077 73.3256C71.5011 73.3592 71.3116 73.3866 71.1353 73.412C70.5772 73.4925 70.1532 73.5537 69.7496 73.7321C69.5471 73.8216 69.3327 73.9651 69.0779 74.1703C68.9149 74.3017 68.7889 74.4118 68.6504 74.5329C68.536 74.6329 68.413 74.7404 68.2534 74.8736C67.6707 75.3599 66.8444 75.972 65.7237 75.972C64.603 75.972 63.7767 75.3599 63.194 74.8736C63.0344 74.7404 62.9114 74.6329 62.797 74.5329C62.6585 74.4118 62.5325 74.3017 62.3695 74.1703C62.1147 73.9651 61.9003 73.8216 61.6978 73.7321C61.2942 73.5537 60.8702 73.4925 60.3121 73.412C60.1358 73.3866 59.9462 73.3592 59.7397 73.3256C58.9798 73.2021 57.981 72.9803 57.2429 72.144C56.5604 71.3707 56.5443 70.3686 56.5455 69.7328C56.5457 69.614 56.547 69.5054 56.5482 69.4031C56.5508 69.1812 56.5531 68.9892 56.5433 68.7874C56.5297 68.5089 56.4946 68.3099 56.4373 68.1601C56.3832 68.0187 56.2821 67.8571 56.1105 67.6497C55.9908 67.5048 55.8737 67.3791 55.7375 67.2327C55.6616 67.1512 55.5797 67.0633 55.4881 66.9622C55.0503 66.4785 54.4156 65.7269 54.4156 64.6639C54.4156 63.601 55.0503 62.8493 55.4881 62.3657C55.5797 62.2645 55.6616 62.1766 55.7375 62.0951C55.8737 61.9487 55.9908 61.823 56.1105 61.6782C56.2821 61.4707 56.3832 61.3091 56.4373 61.1678C56.4726 61.0753 56.4981 60.9294 56.4967 60.6887C56.4956 60.4995 56.4802 60.3127 56.4616 60.086C56.4555 60.0113 56.449 59.9322 56.4425 59.8473L56.4419 59.8393C56.3999 59.286 56.3247 58.2974 56.9505 57.5287C57.6049 56.725 58.365 56.4601 59.0249 56.3035C59.1951 56.2631 59.3485 56.2304 59.4908 56.2002C59.9166 56.1096 60.2431 56.0401 60.6252 55.8468C60.9089 55.7033 61.2217 55.4998 61.5874 55.2465C61.6884 55.1766 61.795 55.1017 61.9055 55.0241C62.1737 54.8357 62.4645 54.6315 62.7506 54.4449Z" fill="black"/>
<path fill-rule="evenodd" clip-rule="evenodd" d="M71.7552 64.6637C71.7552 67.9957 69.0817 70.7403 65.7302 70.7403C62.3788 70.7403 59.7053 67.9957 59.7053 64.6637C59.7053 61.3318 62.3788 58.5872 65.7302 58.5872C69.0817 58.5872 71.7552 61.3318 71.7552 64.6637ZM65.7302 68.7403C67.9532 68.7403 69.7552 66.9152 69.7552 64.6637C69.7552 62.4123 67.9532 60.5872 65.7302 60.5872C63.5073 60.5872 61.7053 62.4123 61.7053 64.6637C61.7053 66.9152 63.5073 68.7403 65.7302 68.7403Z" fill="black"/>
<path fill-rule="evenodd" clip-rule="evenodd" d="M105.816 60.6996C105.264 60.6996 104.816 60.2519 104.816 59.6996C104.816 55.0257 104.489 47.1482 104.004 42.8846C103.941 42.3358 104.335 41.8403 104.884 41.7778C105.433 41.7153 105.928 42.1094 105.991 42.6582C106.488 47.0225 106.816 54.981 106.816 59.6996C106.816 60.2519 106.369 60.6996 105.816 60.6996Z" fill="black"/>
<path fill-rule="evenodd" clip-rule="evenodd" d="M98.772 54.2559C98.2197 54.2559 97.772 53.8081 97.772 53.2559C97.772 49.1155 97.4506 46.3863 96.9665 43.4818C96.8757 42.937 97.2437 42.4218 97.7885 42.331C98.3333 42.2402 98.8485 42.6082 98.9393 43.153C99.4381 46.146 99.772 48.9867 99.772 53.2559C99.772 53.8081 99.3243 54.2559 98.772 54.2559Z" fill="black"/>
<path fill-rule="evenodd" clip-rule="evenodd" d="M81.4069 54.802C80.8546 54.802 80.4069 54.3543 80.4069 53.802C80.4069 49.6617 80.0855 46.9324 79.6014 44.0279C79.5106 43.4831 79.8786 42.9679 80.4234 42.8771C80.9682 42.7863 81.4834 43.1543 81.5742 43.6991C82.073 46.6921 82.4069 49.5328 82.4069 53.802C82.4069 54.3543 81.9592 54.802 81.4069 54.802Z" fill="black"/>
<path fill-rule="evenodd" clip-rule="evenodd" d="M49.902 63.3455C50.4543 63.3455 50.902 63.7932 50.902 64.3455C50.902 68.4858 51.2234 71.215 51.7075 74.1196C51.7983 74.6643 51.4303 75.1796 50.8855 75.2704C50.3407 75.3612 49.8255 74.9931 49.7347 74.4484C49.2359 71.4553 48.902 68.6146 48.902 64.3455C48.902 63.7932 49.3497 63.3455 49.902 63.3455Z" fill="black"/>
<path fill-rule="evenodd" clip-rule="evenodd" d="M27.6394 53.9325C28.1917 53.9325 28.6394 53.4848 28.6394 52.9325C28.6394 48.7922 28.9608 46.0629 29.4449 43.1584C29.5357 42.6136 29.1677 42.0984 28.6229 42.0076C28.0781 41.9168 27.5629 42.2848 27.4721 42.8296C26.9732 45.8226 26.6394 48.6633 26.6394 52.9325C26.6394 53.4848 27.0871 53.9325 27.6394 53.9325Z" fill="black"/>
<path fill-rule="evenodd" clip-rule="evenodd" d="M20.8476 61.1569C21.3999 61.1569 21.8476 61.6046 21.8476 62.1569C21.8476 66.6485 22.1182 70.8983 22.923 75.2443C23.0236 75.7874 22.6649 76.3091 22.1218 76.4097C21.5788 76.5102 21.057 76.1515 20.9565 75.6085C20.1231 71.1081 19.8476 66.7301 19.8476 62.1569C19.8476 61.6046 20.2953 61.1569 20.8476 61.1569Z" fill="black"/>
</svg>
