<svg width="128" height="128" viewBox="0 0 128 128" fill="none" xmlns="http://www.w3.org/2000/svg">
<path d="M19.8929 54.2807C19.8929 47.9127 25.0552 42.7504 31.4232 42.7504H102.9C109.268 42.7504 114.43 47.9127 114.43 54.2807V97.5562C114.43 103.924 109.268 109.087 102.9 109.087H31.4232C25.0552 109.087 19.8929 103.924 19.8929 97.5562V54.2807Z" fill="black"/>
<path d="M15.4915 46.0359C15.4915 41.7905 18.933 38.349 23.1784 38.349H102.342C106.587 38.349 110.029 41.7905 110.029 46.0359V96.9983C110.029 101.244 106.587 104.685 102.342 104.685H23.1784C18.933 104.685 15.4915 101.244 15.4915 96.9983V46.0359Z" fill="white"/>
<path fill-rule="evenodd" clip-rule="evenodd" d="M23.1784 36.4272H102.342C107.649 36.4272 111.951 40.7292 111.951 46.0359V96.9983C111.951 102.305 107.649 106.607 102.342 106.607H23.1784C17.8717 106.607 13.5698 102.305 13.5698 96.9983V46.0359C13.5698 40.7292 17.8717 36.4272 23.1784 36.4272ZM23.1784 38.349C18.933 38.349 15.4915 41.7905 15.4915 46.0359V96.9983C15.4915 101.244 18.933 104.685 23.1784 104.685H102.342C106.587 104.685 110.029 101.244 110.029 96.9983V46.0359C110.029 41.7905 106.587 38.349 102.342 38.349H23.1784Z" fill="black"/>
<path d="M52.1465 43.8507C52.1465 42.1288 53.5423 40.733 55.2641 40.733H70.2562C71.978 40.733 73.3738 42.1288 73.3738 43.8507C73.3738 45.5725 71.978 46.9683 70.2562 46.9683H55.2641C53.5423 46.9683 52.1465 45.5725 52.1465 43.8507Z" fill="black"/>
<path fill-rule="evenodd" clip-rule="evenodd" d="M29.7882 55.4998H51.9021C55.0861 55.4998 57.6673 58.0809 57.6673 61.2649V90.6894C57.6673 93.8734 55.0861 96.4545 51.9021 96.4545H29.7882C26.6041 96.4545 24.023 93.8734 24.023 90.6894V61.2649C24.023 58.0809 26.6041 55.4998 29.7882 55.4998ZM29.7882 57.4215C27.6655 57.4215 25.9447 59.1423 25.9447 61.2649V90.6894C25.9447 92.812 27.6655 94.5328 29.7882 94.5328H51.9021C54.0248 94.5328 55.7455 92.812 55.7455 90.6894V61.2649C55.7455 59.1422 54.0248 57.4215 51.9021 57.4215H29.7882Z" fill="black"/>
<path fill-rule="evenodd" clip-rule="evenodd" d="M33.8508 81.8968C34.3744 83.1173 35.487 84.0154 36.9618 84.63C38.5558 85.2941 40.4537 85.5713 42.1034 85.5713C43.7531 85.5713 45.6511 85.2941 47.245 84.63C48.7199 84.0154 49.8325 83.1173 50.3561 81.8968C49.8191 80.7231 48.5085 79.806 46.8346 79.1622C45.0616 78.4803 43.1483 78.211 42.1034 78.211C41.0586 78.211 39.1453 78.4803 37.3723 79.1622C35.6984 79.806 34.3877 80.7231 33.8508 81.8968ZM36.6824 77.3686C38.6803 76.6002 40.8278 76.2893 42.1034 76.2893C43.3791 76.2893 45.5266 76.6002 47.5244 77.3686C49.4821 78.1215 51.5758 79.424 52.2969 81.5873C52.3627 81.7845 52.3627 81.9978 52.2969 82.195C51.5965 84.2962 49.8681 85.6189 47.9842 86.4039C46.0974 87.19 43.9345 87.493 42.1034 87.493C40.2724 87.493 38.1095 87.19 36.2227 86.4039C34.3388 85.6189 32.6104 84.2962 31.9099 82.195C31.8442 81.9978 31.8442 81.7845 31.9099 81.5873C32.631 79.424 34.7248 78.1215 36.6824 77.3686Z" fill="black"/>
<path fill-rule="evenodd" clip-rule="evenodd" d="M38.5081 64.2495C38.1187 63.6564 37.4317 63.3243 36.7211 63.3915C35.9843 63.4612 35.3531 63.9477 35.098 64.6425C34.4763 66.3361 34.6273 67.9376 35.6399 69.1512C35.8769 69.4352 36.1414 69.6731 36.419 69.8724C36.2991 70.331 36.2353 70.8119 36.2353 71.3071C36.2353 74.4353 38.7711 76.9711 41.8993 76.9711C44.9899 76.9711 47.5024 74.4957 47.5622 71.4193C47.5915 71.1239 47.6328 70.5283 47.5663 70.0211C47.3151 67.7918 46.2396 66.2404 44.6121 65.3897C43.136 64.618 41.4374 64.5493 40.0965 64.6238C39.4207 64.6613 38.9935 64.5261 38.7578 64.4108C38.5994 64.3332 38.5255 64.2652 38.5081 64.2495ZM45.6589 70.2562C45.2921 66.9093 42.6788 66.405 40.2031 66.5426C39.5714 66.5777 39.0349 66.5111 38.5882 66.3893C37.6341 66.1291 37.0894 65.617 36.9021 65.3047C36.4713 66.4781 36.6325 67.3001 37.0703 67.8639C37.1265 67.9364 37.1873 68.0045 37.252 68.0686C37.7249 68.5372 38.4058 68.7886 39.0336 68.9002C38.6129 69.4006 38.3208 70.0128 38.2083 70.6859C38.1746 70.8879 38.157 71.0955 38.157 71.3071C38.157 73.3739 39.8325 75.0494 41.8993 75.0494C43.9661 75.0494 45.6416 73.3739 45.6416 71.3071C45.6666 71.0923 45.7052 70.5814 45.6589 70.2562Z" fill="black"/>
<path fill-rule="evenodd" clip-rule="evenodd" d="M42.9557 81.3514C42.9557 80.8207 43.3859 80.3905 43.9166 80.3905H46.6674C47.1981 80.3905 47.6283 80.8207 47.6283 81.3514C47.6283 81.882 47.1981 82.3122 46.6674 82.3122H43.9166C43.3859 82.3122 42.9557 81.882 42.9557 81.3514Z" fill="black"/>
<path fill-rule="evenodd" clip-rule="evenodd" d="M63.2668 85.1951C63.2668 84.6644 63.697 84.2342 64.2277 84.2342H83.8487C84.3793 84.2342 84.8095 84.6644 84.8095 85.1951C84.8095 85.7257 84.3793 86.1559 83.8487 86.1559H64.2277C63.697 86.1559 63.2668 85.7257 63.2668 85.1951Z" fill="black"/>
<path fill-rule="evenodd" clip-rule="evenodd" d="M63.2668 79.3367C63.2668 78.806 63.697 78.3758 64.2277 78.3758H100.172C100.703 78.3758 101.133 78.806 101.133 79.3367C101.133 79.8674 100.703 80.2976 100.172 80.2976H64.2277C63.697 80.2976 63.2668 79.8674 63.2668 79.3367Z" fill="black"/>
<path fill-rule="evenodd" clip-rule="evenodd" d="M63.2668 73.4682C63.2668 72.9375 63.697 72.5073 64.2277 72.5073H100.172C100.703 72.5073 101.133 72.9375 101.133 73.4682C101.133 73.9988 100.703 74.429 100.172 74.429H64.2277C63.697 74.429 63.2668 73.9988 63.2668 73.4682Z" fill="black"/>
<path fill-rule="evenodd" clip-rule="evenodd" d="M63.2664 67.5997C63.2664 67.069 63.6966 66.6388 64.2273 66.6388H100.172C100.702 66.6388 101.133 67.069 101.133 67.5997C101.133 68.1304 100.702 68.5606 100.172 68.5606H64.2273C63.6966 68.5606 63.2664 68.1304 63.2664 67.5997Z" fill="black"/>
<path d="M63.4479 58.7511C63.4479 57.6117 64.3716 56.688 65.511 56.688H99.2547C100.394 56.688 101.318 57.6117 101.318 58.7511C101.318 59.8906 100.394 60.8143 99.2547 60.8143H65.511C64.3716 60.8143 63.4479 59.8906 63.4479 58.7511Z" fill="black"/>
<path d="M57.5794 22.7571C57.5794 21.6957 58.4398 20.8353 59.5011 20.8353H66.0192C67.0806 20.8353 67.9409 21.6957 67.9409 22.7571V43.5756H57.5794V22.7571Z" fill="white"/>
<path fill-rule="evenodd" clip-rule="evenodd" d="M69.8627 45.4973H55.6577V22.757C55.6577 20.6343 57.3785 18.9136 59.5011 18.9136H66.0192C68.1419 18.9136 69.8627 20.6343 69.8627 22.757V45.4973ZM59.5011 20.8353C58.4398 20.8353 57.5794 21.6957 57.5794 22.757V43.5756H67.9409V22.757C67.9409 21.6957 67.0806 20.8353 66.0192 20.8353H59.5011Z" fill="black"/>
<path d="M65.4193 25.9703C65.4193 27.4389 64.2288 28.6295 62.7602 28.6295C61.2916 28.6295 60.101 27.4389 60.101 25.9703C60.101 24.5017 61.2916 23.3112 62.7602 23.3112C64.2288 23.3112 65.4193 24.5017 65.4193 25.9703Z" fill="black"/>
</svg>
