<svg width="128" height="128" viewBox="0 0 128 128" fill="none" xmlns="http://www.w3.org/2000/svg">
<path d="M66.5679 35.6977L104.951 30.1226C108.239 29.645 111.212 32.1322 111.322 35.4529L113.415 98.4639C113.515 101.485 111.188 104.036 108.17 104.213L67.6946 106.581C64.494 106.768 61.7958 104.223 61.7958 101.017V41.2131C61.7958 38.4445 63.8281 36.0957 66.5679 35.6977Z" fill="black"/>
<path d="M61.4321 35.6977L23.0492 30.1226C19.7612 29.645 16.7883 32.1322 16.678 35.4529L14.5854 98.4639C14.485 101.485 16.8119 104.036 19.83 104.213L60.3054 106.581C63.506 106.768 66.2042 104.223 66.2042 101.017V41.2131C66.2042 38.4445 64.1719 36.0957 61.4321 35.6977Z" fill="black"/>
<path d="M65.6869 33.7265L103.352 27.3776C104.464 27.1902 105.485 28.0286 105.518 29.1557L107.482 96.9941C107.511 97.9922 106.745 98.8346 105.749 98.9014L66.1199 101.558C65.0474 101.63 64.1379 100.779 64.1379 99.7045V35.5584C64.1379 34.6515 64.7926 33.8772 65.6869 33.7265Z" fill="white"/>
<path fill-rule="evenodd" clip-rule="evenodd" d="M103.043 25.5457L65.3781 31.8946C63.5896 32.196 62.2802 33.7447 62.2802 35.5584V99.7045C62.2802 101.854 64.0992 103.555 66.2442 103.412L105.873 100.755C107.866 100.621 109.397 98.9366 109.339 96.9403L107.375 29.102C107.31 26.8476 105.267 25.1709 103.043 25.5457ZM103.352 27.3776L65.6869 33.7265C64.7926 33.8772 64.1379 34.6515 64.1379 35.5584V99.7045C64.1379 100.779 65.0474 101.63 66.1199 101.558L105.749 98.9014C106.745 98.8347 107.511 97.9922 107.482 96.9941L105.518 29.1558C105.485 28.0286 104.464 27.1902 103.352 27.3776Z" fill="black"/>
<path d="M66.3645 33.5773L98.7019 23.3559C99.8779 22.9842 101.083 23.8406 101.119 25.0735L103.079 92.7936C103.106 93.7043 102.468 94.4997 101.573 94.6717L67.2752 101.266C66.1295 101.487 65.0667 100.609 65.0667 99.4419V35.3487C65.0667 34.5383 65.5919 33.8215 66.3645 33.5773Z" fill="white"/>
<path fill-rule="evenodd" clip-rule="evenodd" d="M98.1419 21.5845L65.8046 31.8059C64.2594 32.2943 63.2089 33.728 63.2089 35.3486V99.4419C63.2089 101.775 65.3346 103.531 67.626 103.091L101.924 96.496C103.713 96.152 104.989 94.5611 104.936 92.7398L102.976 25.0197C102.904 22.5539 100.494 20.841 98.1419 21.5845ZM98.7019 23.3559L66.3645 33.5772C65.5919 33.8215 65.0667 34.5383 65.0667 35.3486V99.4419C65.0667 100.609 66.1295 101.486 67.2752 101.266L101.573 94.6717C102.468 94.4996 103.106 93.7042 103.079 92.7936L101.119 25.0735C101.083 23.8406 99.8779 22.9841 98.7019 23.3559Z" fill="black"/>
<path d="M73.5496 29.9763L79.2528 28.1146V43.3822L76.4012 41.6326L73.5496 44.4843V29.9763Z" fill="black"/>
<path fill-rule="evenodd" clip-rule="evenodd" d="M71.6918 29.9763C71.6918 29.1724 72.2089 28.4597 72.9731 28.2102L78.6764 26.3486C79.2421 26.1639 79.8621 26.2614 80.3438 26.6109C80.8255 26.9604 81.1106 27.5195 81.1106 28.1146V43.3821C81.1106 44.0547 80.7471 44.6748 80.1601 45.0032C79.5732 45.3317 78.8546 45.3173 78.2813 44.9656L76.6787 43.9824L74.8632 45.7979C74.3319 46.3292 73.5328 46.4881 72.8386 46.2006C72.1444 45.913 71.6918 45.2356 71.6918 44.4842V29.9763ZM79.2528 43.3821L76.4012 41.6326L73.5496 44.4842V29.9763L79.2528 28.1146V43.3821Z" fill="black"/>
<path d="M61.4882 33.7251L24.0857 27.3802C22.973 27.1915 21.9505 28.0303 21.918 29.1584L19.9666 96.9952C19.9379 97.9929 20.7027 98.8349 21.6985 98.9021L61.0525 101.557C62.1253 101.63 63.0353 100.779 63.0353 99.7036V35.5567C63.0353 34.6506 62.3816 33.8767 61.4882 33.7251Z" fill="white"/>
<path fill-rule="evenodd" clip-rule="evenodd" d="M24.3964 25.5487L61.799 31.8936C63.5856 32.1967 64.893 33.7445 64.893 35.5567V99.7037C64.893 101.854 63.073 103.555 60.9274 103.411L21.5735 100.756C19.5818 100.621 18.0522 98.9372 18.1096 96.9418L20.0611 29.105C20.126 26.8488 22.1711 25.1712 24.3964 25.5487ZM24.0857 27.3803L61.4883 33.7251C62.3816 33.8767 63.0353 34.6506 63.0353 35.5567V99.7037C63.0353 100.779 62.1253 101.63 61.0525 101.557L21.6985 98.9021C20.7027 98.8349 19.9379 97.9929 19.9666 96.9952L21.918 29.1584C21.9505 28.0303 22.9731 27.1915 24.0857 27.3803Z" fill="black"/>
<path fill-rule="evenodd" clip-rule="evenodd" d="M52.6969 52.154C53.9226 51.6104 55.3235 51.6629 56.3932 52.1679C56.8571 52.3869 57.0556 52.9406 56.8366 53.4045C56.6176 53.8684 56.0639 54.0669 55.6 53.8479C55.0157 53.572 54.1791 53.5288 53.45 53.8522C52.7661 54.1555 52.125 54.8043 51.9139 56.0425C51.7041 57.2723 51.9822 58.4502 52.5963 59.2318C53.1784 59.9727 54.1255 60.4446 55.5234 60.208C56.0292 60.1224 56.5086 60.463 56.5942 60.9689C56.6798 61.4747 56.3392 61.9541 55.8334 62.0397C53.797 62.3844 52.1579 61.6809 51.1354 60.3794C50.1449 59.1186 49.8 57.3871 50.0826 55.7302C50.3949 53.8985 51.426 52.7176 52.6969 52.154Z" fill="black"/>
<path fill-rule="evenodd" clip-rule="evenodd" d="M99.1514 47.5091C99.0531 47.0057 98.5652 46.6772 98.0617 46.7756L68.4425 52.5617C67.939 52.66 67.6106 53.1479 67.7089 53.6514C67.8073 54.1549 68.2952 54.4833 68.7987 54.3849L98.4179 48.5989C98.9214 48.5005 99.2498 48.0126 99.1514 47.5091Z" fill="black"/>
<path fill-rule="evenodd" clip-rule="evenodd" d="M99.1514 51.7799C99.0531 51.2764 98.5652 50.948 98.0617 51.0463L68.4425 56.8324C67.939 56.9308 67.6106 57.4187 67.7089 57.9221C67.8073 58.4256 68.2952 58.754 68.7987 58.6557L98.4179 52.8696C98.9214 52.7713 99.2498 52.2834 99.1514 51.7799Z" fill="black"/>
<path fill-rule="evenodd" clip-rule="evenodd" d="M99.1514 68.9316C99.0531 68.4281 98.5652 68.0997 98.0617 68.1981L68.4425 73.9841C67.939 74.0825 67.6106 74.5704 67.7089 75.0739C67.8073 75.5774 68.2952 75.9058 68.7987 75.8074L98.4179 70.0213C98.9214 69.923 99.2498 69.4351 99.1514 68.9316Z" fill="black"/>
<path fill-rule="evenodd" clip-rule="evenodd" d="M99.1514 56.1885C99.0531 55.685 98.5652 55.3566 98.0617 55.4549L68.4425 61.241C67.939 61.3393 67.6106 61.8272 67.7089 62.3307C67.8073 62.8342 68.2952 63.1626 68.7987 63.0643L98.4179 57.2782C98.9214 57.1798 99.2498 56.6919 99.1514 56.1885Z" fill="black"/>
<path fill-rule="evenodd" clip-rule="evenodd" d="M99.1514 73.3402C99.0531 72.8367 98.5652 72.5083 98.0617 72.6066L68.4425 78.3927C67.939 78.4911 67.6106 78.979 67.7089 79.4824C67.8073 79.9859 68.2952 80.3144 68.7987 80.216L98.4179 74.4299C98.9214 74.3316 99.2498 73.8437 99.1514 73.3402Z" fill="black"/>
<path fill-rule="evenodd" clip-rule="evenodd" d="M99.1514 60.7693C99.0531 60.2658 98.5652 59.9374 98.0617 60.0357L68.4425 65.8218C67.939 65.9202 67.6106 66.408 67.7089 66.9115C67.8073 67.415 68.2952 67.7434 68.7987 67.6451L98.4179 61.859C98.9214 61.7606 99.2498 61.2728 99.1514 60.7693Z" fill="black"/>
<path fill-rule="evenodd" clip-rule="evenodd" d="M99.1514 77.9211C99.0531 77.4176 98.5652 77.0892 98.0617 77.1876L68.4425 82.9737C67.939 83.072 67.6106 83.5599 67.7089 84.0634C67.8073 84.5669 68.2952 84.8953 68.7987 84.7969L98.4179 79.0108C98.9214 78.9125 99.2498 78.4246 99.1514 77.9211Z" fill="black"/>
<path fill-rule="evenodd" clip-rule="evenodd" d="M85.7229 85.3457C85.6357 84.8402 85.1553 84.501 84.6497 84.5881L68.4625 87.3781C67.9569 87.4652 67.6177 87.9457 67.7049 88.4512C67.792 88.9568 68.2725 89.296 68.778 89.2088L84.9653 86.4189C85.4708 86.3317 85.81 85.8513 85.7229 85.3457Z" fill="black"/>
<path fill-rule="evenodd" clip-rule="evenodd" d="M26.0854 67.4575C26.1322 66.9466 26.5844 66.5705 27.0952 66.6173L57.1277 69.3726C57.6386 69.4195 58.0147 69.8716 57.9678 70.3825C57.921 70.8933 57.4689 71.2695 56.958 71.2226L26.9255 68.4673C26.4146 68.4205 26.0385 67.9683 26.0854 67.4575Z" fill="black"/>
<path fill-rule="evenodd" clip-rule="evenodd" d="M26.0854 79.8529C26.1322 79.342 26.5844 78.9659 27.0952 79.0127L57.1277 81.768C57.6386 81.8149 58.0147 82.267 57.9678 82.7779C57.921 83.2887 57.4689 83.6649 56.958 83.618L26.9255 80.8627C26.4146 80.8158 26.0385 80.3637 26.0854 79.8529Z" fill="black"/>
<path fill-rule="evenodd" clip-rule="evenodd" d="M26.0836 71.8809C26.118 71.369 26.5608 70.982 27.0727 71.0164L43.4666 72.1185C43.9784 72.1529 44.3654 72.5958 44.331 73.1076C44.2966 73.6194 43.8538 74.0065 43.3419 73.9721L26.9481 72.87C26.4362 72.8356 26.0492 72.3927 26.0836 71.8809Z" fill="black"/>
<path fill-rule="evenodd" clip-rule="evenodd" d="M26.0837 84.2738C26.1196 83.7621 26.5635 83.3763 27.0752 83.4121L50.6027 85.0591C51.1144 85.0949 51.5003 85.5388 51.4644 86.0505C51.4286 86.5623 50.9847 86.9481 50.473 86.9123L26.9455 85.2653C26.4337 85.2295 26.0479 84.7856 26.0837 84.2738Z" fill="black"/>
<path fill-rule="evenodd" clip-rule="evenodd" d="M26.0836 88.2311C26.118 87.7193 26.5608 87.3322 27.0727 87.3666L43.4666 88.4687C43.9784 88.5032 44.3654 88.946 44.331 89.4578C44.2966 89.9697 43.8538 90.3567 43.3419 90.3223L26.9481 89.2202C26.4362 89.1858 26.0492 88.743 26.0836 88.2311Z" fill="black"/>
<path fill-rule="evenodd" clip-rule="evenodd" d="M32.1904 40.4225C32.5867 40.4414 32.9272 40.7099 33.038 41.0908L38.5485 60.0333C38.6918 60.5259 38.4087 61.0414 37.9161 61.1847C37.4235 61.328 36.908 61.0448 36.7647 60.5522L32.0097 44.2067L25.7766 59.8784C25.587 60.3551 25.0469 60.5878 24.5702 60.3982C24.0935 60.2086 23.8608 59.6685 24.0504 59.1918L31.283 41.007C31.4296 40.6384 31.7941 40.4035 32.1904 40.4225Z" fill="black"/>
<path fill-rule="evenodd" clip-rule="evenodd" d="M36.2097 53.0949C36.2097 53.6079 35.7938 54.0238 35.2808 54.0238L27.5315 54.0238C27.0185 54.0238 26.6026 53.6079 26.6026 53.0949C26.6026 52.5819 27.0185 52.166 27.5315 52.166L35.2808 52.1661C35.7938 52.1661 36.2097 52.5819 36.2097 53.0949Z" fill="black"/>
<path fill-rule="evenodd" clip-rule="evenodd" d="M42.5806 48.032V51.8269C42.8246 51.8365 43.0862 51.8636 43.3499 51.904C43.712 51.8747 44.108 51.8109 44.4819 51.6935C44.9219 51.5554 45.2617 51.3644 45.4824 51.1351C45.6827 50.927 45.8201 50.6542 45.8201 50.236C45.8201 49.4235 45.3405 48.8787 44.4635 48.4928C43.8786 48.2355 43.1962 48.0938 42.5806 48.032ZM46.2661 52.8882C46.4629 52.7547 46.6501 52.6008 46.8209 52.4234C47.3504 51.8733 47.6779 51.1404 47.6779 50.236C47.6779 48.4035 46.4584 47.341 45.2116 46.7924C43.9849 46.2526 42.563 46.1136 41.6267 46.1389C41.1236 46.1525 40.7229 46.5642 40.7229 47.0675V60.4306C40.7229 60.8417 40.993 61.2038 41.387 61.321C42.3932 61.6201 44.0376 61.7294 45.5246 61.2562C46.2818 61.0152 47.0376 60.6103 47.6388 59.9618C48.2485 59.304 48.657 58.44 48.7745 57.3628C49.0198 55.1143 47.6852 53.6923 46.2661 52.8882ZM42.5806 53.7767C42.7891 53.7846 43.0167 53.7837 43.2559 53.7717C43.8145 53.8732 44.4623 54.0612 45.0597 54.3518C46.2791 54.9451 47.0731 55.8286 46.9277 57.1613C46.851 57.8644 46.5999 58.3499 46.2763 58.6989C45.9441 59.0573 45.4929 59.3167 44.9612 59.4859C44.1623 59.7402 43.2721 59.7616 42.5806 59.674V53.7767Z" fill="black"/>
</svg>
