<svg width="128" height="128" viewBox="0 0 128 128" fill="none" xmlns="http://www.w3.org/2000/svg">
<path d="M18.3927 38.5947C18.3927 35.747 20.7013 33.4385 23.549 33.4385H110.855C113.702 33.4385 116.011 35.747 116.011 38.5947V95.809C116.011 98.6567 113.702 100.965 110.855 100.965H23.549C20.7013 100.965 18.3927 98.6567 18.3927 95.809V38.5947Z" fill="black"/>
<path d="M13.7079 33.9098C13.7079 31.0621 16.0165 28.7535 18.8642 28.7535H106.17C109.018 28.7535 111.326 31.0621 111.326 33.9098V91.124C111.326 93.9717 109.018 96.2803 106.17 96.2803H18.8642C16.0165 96.2803 13.7079 93.9717 13.7079 91.124V33.9098Z" fill="white"/>
<path fill-rule="evenodd" clip-rule="evenodd" d="M18.8642 27.0348H106.17C109.967 27.0348 113.045 30.1128 113.045 33.9098V91.124C113.045 94.921 109.967 97.999 106.17 97.999H18.8642C15.0673 97.999 11.9892 94.921 11.9892 91.124V33.9098C11.9892 30.1128 15.0672 27.0348 18.8642 27.0348ZM18.8642 28.7535C16.0165 28.7535 13.7079 31.0621 13.7079 33.9098V91.124C13.7079 93.9717 16.0165 96.2803 18.8642 96.2803H106.17C109.018 96.2803 111.326 93.9717 111.326 91.124V33.9098C111.326 31.0621 109.018 28.7535 106.17 28.7535H18.8642Z" fill="black"/>
<path d="M19.7572 44.7614C19.7572 42.8629 21.2963 41.3239 23.1947 41.3239H63.1675C65.066 41.3239 66.605 42.8629 66.605 44.7614V66.4545C66.605 68.353 65.066 69.892 63.1675 69.892H23.1947C21.2963 69.892 19.7572 68.353 19.7572 66.4545V44.7614Z" fill="black"/>
<path fill-rule="evenodd" clip-rule="evenodd" d="M19.0896 74.1437C19.0853 73.1944 19.8514 72.4215 20.8006 72.4172L65.0132 72.2182C65.9624 72.2139 66.7354 72.9799 66.7397 73.9292C66.7439 74.8784 65.9779 75.6514 65.0287 75.6556L20.8161 75.8547C19.8668 75.8589 19.0939 75.0929 19.0896 74.1437Z" fill="black"/>
<path fill-rule="evenodd" clip-rule="evenodd" d="M19.3633 79.0865C19.3633 78.6119 19.7481 78.2272 20.2227 78.2272H54.1874C54.662 78.2272 55.0468 78.6119 55.0468 79.0865C55.0468 79.5612 54.662 79.9459 54.1874 79.9459H20.2227C19.7481 79.9459 19.3633 79.5612 19.3633 79.0865Z" fill="black"/>
<path fill-rule="evenodd" clip-rule="evenodd" d="M19.3633 87.6318C19.3633 87.1572 19.7481 86.7725 20.2227 86.7725H54.1874C54.662 86.7725 55.0468 87.1572 55.0468 87.6318C55.0468 88.1065 54.662 88.4912 54.1874 88.4912H20.2227C19.7481 88.4912 19.3633 88.1065 19.3633 87.6318Z" fill="black"/>
<path fill-rule="evenodd" clip-rule="evenodd" d="M19.3633 82.2883C19.3633 81.8137 19.7481 81.429 20.2227 81.429H37.6443C38.1189 81.429 38.5036 81.8137 38.5036 82.2883C38.5036 82.763 38.1189 83.1477 37.6443 83.1477H20.2227C19.7481 83.1477 19.3633 82.763 19.3633 82.2883Z" fill="black"/>
<path fill-rule="evenodd" clip-rule="evenodd" d="M19.3633 90.2671C19.3633 89.7925 19.7481 89.4077 20.2227 89.4077H32.9595C33.4341 89.4077 33.8188 89.7925 33.8188 90.2671C33.8188 90.7417 33.4341 91.1265 32.9595 91.1265H20.2227C19.7481 91.1265 19.3633 90.7417 19.3633 90.2671Z" fill="black"/>
<path fill-rule="evenodd" clip-rule="evenodd" d="M92.4163 42.9338C92.4163 42.4592 92.801 42.0745 93.2757 42.0745H107.403C107.878 42.0745 108.263 42.4592 108.263 42.9338C108.263 43.4085 107.878 43.7932 107.403 43.7932H93.2757C92.801 43.7932 92.4163 43.4085 92.4163 42.9338Z" fill="black"/>
<path fill-rule="evenodd" clip-rule="evenodd" d="M92.4169 46.4395C92.4169 45.9648 92.8016 45.5801 93.2762 45.5801H100.988C101.463 45.5801 101.847 45.9648 101.847 46.4395C101.847 46.9141 101.463 47.2988 100.988 47.2988H93.2762C92.8016 47.2988 92.4169 46.9141 92.4169 46.4395Z" fill="black"/>
<path fill-rule="evenodd" clip-rule="evenodd" d="M92.4163 77.7509C92.4163 77.2762 92.801 76.8915 93.2757 76.8915H107.403C107.878 76.8915 108.263 77.2762 108.263 77.7509C108.263 78.2255 107.878 78.6102 107.403 78.6102H93.2757C92.801 78.6102 92.4163 78.2255 92.4163 77.7509Z" fill="black"/>
<path fill-rule="evenodd" clip-rule="evenodd" d="M92.4169 81.2565C92.4169 80.7819 92.8016 80.3971 93.2762 80.3971H100.988C101.463 80.3971 101.847 80.7819 101.847 81.2565C101.847 81.7311 101.463 82.1158 100.988 82.1158H93.2762C92.8016 82.1158 92.4169 81.7311 92.4169 81.2565Z" fill="black"/>
<path fill-rule="evenodd" clip-rule="evenodd" d="M92.4163 59.0114C92.4163 58.5367 92.801 58.152 93.2757 58.152H107.403C107.878 58.152 108.263 58.5367 108.263 59.0114C108.263 59.486 107.878 59.8707 107.403 59.8707H93.2757C92.801 59.8707 92.4163 59.486 92.4163 59.0114Z" fill="black"/>
<path fill-rule="evenodd" clip-rule="evenodd" d="M92.4169 62.517C92.4169 62.0423 92.8016 61.6576 93.2762 61.6576H100.988C101.463 61.6576 101.847 62.0423 101.847 62.517C101.847 62.9916 101.463 63.3763 100.988 63.3763H93.2762C92.8016 63.3763 92.4169 62.9916 92.4169 62.517Z" fill="black"/>
<path fill-rule="evenodd" clip-rule="evenodd" d="M73.7406 40.3369H87.6777C89.5762 40.3369 91.1152 41.8759 91.1152 43.7744V52.7976C91.1152 54.6961 89.5762 56.2351 87.6777 56.2351H73.7406C71.8421 56.2351 70.3031 54.6961 70.3031 52.7976V43.7744C70.3031 41.8759 71.8421 40.3369 73.7406 40.3369ZM73.7406 42.0557C72.7913 42.0557 72.0218 42.8252 72.0218 43.7744V52.7976C72.0218 53.7468 72.7913 54.5163 73.7406 54.5163H87.6777C88.6269 54.5163 89.3965 53.7468 89.3965 52.7976V43.7744C89.3965 42.8252 88.627 42.0557 87.6777 42.0557H73.7406Z" fill="black"/>
<path d="M47.3785 54.2581L43.2638 51.3188C42.1262 50.5062 40.546 51.3194 40.546 52.7174V58.5369C40.546 59.9275 42.1112 60.7424 43.2504 59.945L47.365 57.0647C48.3368 56.3844 48.3437 54.9476 47.3785 54.2581Z" fill="white"/>
<path fill-rule="evenodd" clip-rule="evenodd" d="M20.719 32.5779H104.539C106.019 32.5779 107.219 33.778 107.219 35.2584C107.219 36.7388 106.019 37.9389 104.539 37.9389H20.719C19.2386 37.9389 18.0385 36.7388 18.0385 35.2584C18.0385 33.778 19.2386 32.5779 20.719 32.5779ZM20.719 34.2966C20.1878 34.2966 19.7572 34.7272 19.7572 35.2584C19.7572 35.7895 20.1878 36.2201 20.719 36.2201H104.539C105.07 36.2201 105.5 35.7895 105.5 35.2584C105.5 34.7272 105.07 34.2966 104.539 34.2966H20.719Z" fill="black"/>
<path fill-rule="evenodd" clip-rule="evenodd" d="M73.7406 57.0763H87.6777C89.5762 57.0763 91.1152 58.6153 91.1152 60.5138V69.537C91.1152 71.4355 89.5762 72.9745 87.6777 72.9745H73.7406C71.8421 72.9745 70.3031 71.4354 70.3031 69.537V60.5138C70.3031 58.6153 71.8421 57.0763 73.7406 57.0763ZM73.7406 58.795C72.7913 58.795 72.0218 59.5646 72.0218 60.5138V69.537C72.0218 70.4862 72.7913 71.2557 73.7406 71.2557H87.6777C88.6269 71.2557 89.3965 70.4862 89.3965 69.537V60.5138C89.3965 59.5646 88.627 58.795 87.6777 58.795H73.7406Z" fill="black"/>
<path fill-rule="evenodd" clip-rule="evenodd" d="M73.7406 74.891H87.6777C89.5762 74.891 91.1152 76.43 91.1152 78.3285V87.3517C91.1152 89.2502 89.5762 90.7892 87.6777 90.7892H73.7406C71.8421 90.7892 70.3031 89.2501 70.3031 87.3517V78.3285C70.3031 76.43 71.8421 74.891 73.7406 74.891ZM73.7406 76.6097C72.7913 76.6097 72.0218 77.3793 72.0218 78.3285V87.3517C72.0218 88.3009 72.7913 89.0704 73.7406 89.0704H87.6777C88.6269 89.0704 89.3965 88.3009 89.3965 87.3517V78.3285C89.3965 77.3793 88.627 76.6097 87.6777 76.6097H73.7406Z" fill="black"/>
<path fill-rule="evenodd" clip-rule="evenodd" d="M79.9709 48.9737C79.9709 49.3213 80.3622 49.525 80.647 49.3257L81.8484 48.4847C82.0914 48.3146 82.0931 47.9554 81.8518 47.783L80.6503 46.9248C80.3659 46.7216 79.9709 46.9249 79.9709 47.2744V48.9737ZM81.6494 45.5262L82.8508 46.3844C84.0574 47.2463 84.0488 49.0424 82.8341 49.8927L81.6326 50.7337C80.2087 51.7305 78.2521 50.7118 78.2521 48.9737V47.2744C78.2521 45.5269 80.2274 44.5104 81.6494 45.5262Z" fill="black"/>
<path fill-rule="evenodd" clip-rule="evenodd" d="M79.9709 66.3766C79.9709 66.7243 80.3622 66.928 80.647 66.7286L81.8484 65.8876C82.0914 65.7176 82.0931 65.3583 81.8518 65.186L80.6503 64.3277C80.3659 64.1246 79.9709 64.3279 79.9709 64.6774V66.3766ZM81.6494 62.9292L82.8508 63.7874C84.0574 64.6493 84.0488 66.4454 82.8341 67.2957L81.6326 68.1367C80.2087 69.1335 78.2521 68.1148 78.2521 66.3766V64.6774C78.2521 62.9299 80.2274 61.9134 81.6494 62.9292Z" fill="black"/>
<path fill-rule="evenodd" clip-rule="evenodd" d="M79.9709 83.9632C79.9709 84.3108 80.3622 84.5145 80.647 84.3152L81.8484 83.4742C82.0914 83.3041 82.0931 82.9449 81.8518 82.7725L80.6503 81.9143C80.3659 81.7111 79.9709 81.9144 79.9709 82.2639V83.9632ZM81.6494 80.5157L82.8508 81.3739C84.0574 82.2358 84.0488 84.0319 82.8341 84.8822L81.6326 85.7232C80.2087 86.72 78.2521 85.7013 78.2521 83.9632V82.2639C78.2521 80.5164 80.2274 79.4999 81.6494 80.5157Z" fill="black"/>
</svg>
